<?xml version="1.0" standalone="no"?>
<!DOCTYPE svg PUBLIC "-//W3C//DTD SVG 20010904//EN"
 "http://www.w3.org/TR/2001/REC-SVG-20010904/DTD/svg10.dtd">
<svg version="1.0" xmlns="http://www.w3.org/2000/svg"
 width="704.000000pt" height="733.000000pt" viewBox="0 0 704.000000 733.000000"
 preserveAspectRatio="xMidYMid meet">

<g transform="translate(0.000000,733.000000) scale(0.100000,-0.100000)"
fill="#000000" stroke="none">
<path d="M0 3665 l0 -3665 3520 0 3520 0 0 3665 0 3665 -3520 0 -3520 0 0
-3665z m3533 3198 c-13 -2 -33 -2 -45 0 -13 2 -3 4 22 4 25 0 35 -2 23 -4z
m-298 -53 c-3 -5 -12 -10 -18 -10 -7 0 -6 4 3 10 19 12 23 12 15 0z m898 -37
c-7 -2 -21 -2 -30 0 -10 3 -4 5 12 5 17 0 24 -2 18 -5z m-456 -28 c91 -29 223
-114 284 -183 87 -99 118 -195 126 -387 6 -158 -5 -229 -58 -362 -36 -91 -49
-116 -56 -110 -2 3 0 15 7 26 6 12 24 74 41 139 25 99 30 137 30 247 1 132
-15 228 -47 285 -14 24 -14 24 -8 -12 3 -21 4 -38 1 -38 -3 0 -19 21 -36 48
-17 26 -45 63 -62 82 l-31 35 7 -35 c3 -19 9 -43 11 -52 9 -33 -4 -19 -36 36
-44 79 -170 201 -131 129 8 -16 34 -142 56 -278 9 -51 -11 -14 -39 77 -16 48
-43 111 -61 139 l-32 51 -7 -63 -8 -64 -17 52 c-18 54 -58 118 -92 149 -18 17
-20 16 -45 -7 -37 -34 -84 -119 -84 -151 0 -15 -4 -30 -10 -33 -6 -4 -10 19
-10 61 l0 68 -26 -35 c-60 -78 -107 -213 -123 -351 l-8 -73 -2 76 c-1 81 26
245 58 347 10 34 16 62 12 62 -13 0 -99 -95 -129 -142 -33 -54 -43 -54 -31 0
4 20 7 38 5 39 -4 5 -76 -96 -97 -137 -26 -49 -31 -48 -19 5 14 63 -13 19 -40
-66 -21 -65 -22 -82 -17 -227 5 -137 19 -235 42 -294 13 -34 -15 -18 -29 16
-81 195 -74 498 17 670 61 116 209 227 355 267 102 27 242 25 339 -6z m-2031
-31 c83 -50 159 -108 216 -167 53 -54 223 -294 277 -390 18 -31 36 -55 40 -53
9 6 121 -190 156 -274 36 -84 111 -296 136 -384 42 -147 80 -228 132 -283 44
-47 48 -54 31 -60 -11 -5 -20 -18 -21 -31 -2 -13 1 -21 6 -18 5 4 7 -3 4 -15
-4 -16 -8 -17 -14 -7 -7 11 -9 10 -9 -1 0 -8 -2 -12 -5 -9 -3 3 -1 18 5 33 9
25 6 33 -29 80 -22 28 -74 119 -117 201 -98 188 -147 265 -213 332 -53 53
-191 156 -198 148 -3 -2 19 -28 47 -58 46 -48 163 -215 218 -310 l21 -38 -91
63 c-140 96 -396 313 -383 325 2 3 10 0 17 -5 22 -17 168 -94 168 -89 0 3 -70
66 -155 141 -85 75 -155 138 -155 140 0 3 22 -9 49 -25 26 -17 51 -30 55 -30
3 0 -28 69 -70 153 -42 83 -82 168 -90 187 -7 19 -29 73 -48 120 -20 46 -36
88 -36 92 0 5 14 -8 32 -29 17 -21 70 -78 117 -128 47 -49 79 -84 71 -77 -25
21 -34 13 -12 -11 12 -13 22 -28 22 -33 0 -6 42 -57 94 -115 86 -96 101 -126
57 -112 -9 2 0 -8 19 -24 19 -15 93 -83 164 -150 72 -67 132 -121 133 -119 2
2 -30 74 -71 162 -197 421 -379 687 -570 830 -57 43 -64 46 -110 41 l-50 -4
23 18 c34 28 70 23 137 -17z m3834 21 c25 -14 24 -14 -18 -15 -55 0 -86 -17
-164 -86 -163 -145 -364 -452 -508 -775 -33 -74 -68 -147 -77 -164 -15 -26 -9
-23 43 22 32 28 82 75 109 103 28 29 76 74 107 101 47 39 55 50 42 57 -16 9
-10 17 146 201 36 42 91 112 124 154 53 70 79 97 60 65 -18 -32 11 6 42 53 19
30 34 51 34 47 0 -3 -14 -39 -31 -79 -16 -41 -37 -91 -44 -111 -8 -21 -55
-119 -105 -219 l-90 -180 67 48 c95 66 62 30 -99 -109 -152 -132 -174 -155
-105 -115 26 16 66 35 89 43 l42 15 -25 -27 c-35 -38 -303 -253 -377 -303
l-63 -43 17 34 c34 66 165 254 213 306 27 28 46 52 42 52 -16 0 -121 -78 -174
-129 -76 -73 -112 -124 -177 -246 -29 -55 -80 -148 -113 -208 -59 -106 -60
-107 -76 -85 -14 21 -15 36 -1 31 13 -4 77 153 155 380 94 276 132 370 148
360 6 -4 8 0 4 10 -3 9 -2 16 4 14 5 -1 26 34 46 78 36 80 83 159 83 140 0 -6
-6 -19 -13 -30 -16 -23 -28 -55 -22 -55 3 0 21 33 41 73 53 105 210 333 276
398 102 103 258 209 308 208 8 0 26 -6 40 -14z m147 -92 c-3 -10 -5 -4 -5 12
0 17 2 24 5 18 2 -7 2 -21 0 -30z m-2657 -40 c-11 -16 -32 -45 -47 -65 -25
-36 -51 -43 -38 -10 10 27 -43 -27 -76 -77 -16 -24 -29 -52 -29 -62 0 -10 -5
-21 -10 -24 -10 -6 -7 29 6 95 l5 25 -21 -25 c-12 -14 -32 -47 -44 -75 -13
-27 -28 -61 -34 -75 -10 -22 -11 -20 -5 15 3 22 12 54 20 72 20 49 16 56 -17
33 -39 -28 -79 -81 -96 -127 -13 -38 -13 -38 -14 -8 0 23 -3 27 -10 15 -8 -12
-10 -10 -10 10 0 24 -1 23 -23 -10 l-22 -35 -3 32 c-5 55 21 87 120 149 51 31
110 72 130 90 34 30 56 39 178 73 58 16 64 14 40 -16z m1102 13 c24 -7 62 -18
85 -25 23 -6 63 -31 90 -54 26 -24 76 -59 111 -77 99 -53 142 -96 149 -150 l5
-45 -17 30 c-23 43 -28 44 -20 8 5 -28 4 -32 -9 -27 -9 3 -16 9 -16 13 0 4 -7
16 -15 27 -14 18 -14 17 -10 -16 4 -27 3 -30 -4 -15 -5 11 -10 31 -11 45 -1
23 -2 23 -9 5 -7 -18 -9 -18 -24 10 -17 33 -87 105 -87 89 0 -5 7 -36 15 -69
17 -72 18 -78 6 -71 -5 3 -12 22 -16 43 -7 38 -53 138 -60 131 -3 -2 -1 -28 4
-56 4 -29 5 -54 1 -57 -3 -2 -18 22 -32 53 -15 31 -41 71 -59 87 -18 17 -29
25 -26 20 3 -6 2 -17 -3 -24 -6 -10 -15 -3 -34 27 -14 22 -39 57 -57 76 -35
41 -27 45 43 22z m1565 -148 c-3 -8 -6 -5 -6 6 -1 11 2 17 5 13 3 -3 4 -12 1
-19z m-3206 -16 c-6 -11 -8 -27 -5 -35 3 -8 1 -18 -5 -22 -6 -3 -11 -14 -10
-23 0 -16 1 -16 7 0 4 9 7 -36 7 -102 0 -65 -3 -117 -6 -114 -21 12 -41 110
-35 166 5 55 43 164 53 154 3 -2 0 -13 -6 -24z m649 -27 c0 -8 -4 -15 -10 -15
-5 0 -7 7 -4 15 4 8 8 15 10 15 2 0 4 -7 4 -15z m1514 -1 c3 -8 2 -12 -4 -9
-6 3 -10 1 -10 -4 0 -6 7 -11 15 -11 12 0 14 -7 9 -27 -4 -22 -3 -25 5 -13 8
12 11 5 11 -28 0 -30 -3 -41 -12 -36 -8 5 -9 2 -4 -12 19 -45 19 -55 1 -48
-15 6 -17 3 -13 -19 3 -15 1 -27 -3 -27 -5 0 -9 35 -9 78 0 42 -7 98 -15 125
-13 44 -13 47 4 47 11 0 22 -7 25 -16z m-3227 -66 c-2 -13 -4 -5 -4 17 -1 22
1 32 4 23 2 -10 2 -28 0 -40z m920 -61 c-4 6 -3 14 3 18 6 4 10 -5 10 -19 0
-30 -19 -27 -39 7 l-14 22 23 -20 c13 -11 20 -15 17 -8z m-930 -39 c-3 -7 -5
-2 -5 12 0 14 2 19 5 13 2 -7 2 -19 0 -25z m3226 -98 c-3 -12 -8 -19 -11 -16
-5 6 5 36 12 36 2 0 2 -9 -1 -20z m1074 -32 c-3 -8 -6 -5 -6 6 -1 11 2 17 5
13 3 -3 4 -12 1 -19z m10 -60 c-3 -8 -6 -5 -6 6 -1 11 2 17 5 13 3 -3 4 -12 1
-19z m590 -240 c-2 -35 -3 -9 -3 57 0 66 1 94 3 63 2 -32 2 -86 0 -120z
m-5414 134 c-6 -4 -13 -23 -16 -42 -4 -33 -4 -33 -5 8 -2 34 1 42 16 42 11 0
13 -3 5 -8z m5220 -79 c4 -53 9 -70 27 -83 22 -17 22 -17 -14 -18 l-36 -1 0
84 c0 101 15 113 23 18z m-5095 -135 l187 -3 -188 -2 -187 -3 0 -753 0 -752
168 2 c153 1 167 3 171 20 3 17 4 17 11 -1 6 -18 16 -19 136 -17 71 1 138 -1
149 -6 12 -5 -38 -10 -130 -13 l-150 -5 -3 -117 -3 -118 127 0 c70 0 125 -2
123 -5 -8 -7 -809 -8 -816 -1 -4 3 42 6 101 6 l107 0 -3 118 -3 117 -102 -3
c-64 -1 -103 2 -103 8 0 11 -5 11 115 14 l90 2 2 752 3 752 -103 2 -102 2 103
3 102 4 2 67 2 67 3 -67 4 -68 187 -2z m4729 100 c-3 -7 -5 -2 -5 12 0 14 2
19 5 13 2 -7 2 -19 0 -25z m181 -106 c-10 -2 -19 -11 -19 -20 -1 -15 -2 -15
-6 1 -3 11 -15 17 -36 18 l-32 2 35 6 c37 7 92 0 58 -7z m-4691 2 c-3 -3 -12
-4 -19 -1 -8 3 -5 6 6 6 11 1 17 -2 13 -5z m3944 -66 c-33 -40 -58 -74 -56
-76 4 -5 54 27 82 53 62 58 73 67 73 61 0 -12 -131 -175 -165 -205 -20 -17
-34 -31 -31 -31 11 0 195 69 237 89 l44 21 -30 -25 c-16 -14 -61 -46 -100 -72
-174 -118 -456 -333 -537 -411 -30 -29 -51 -42 -60 -37 -7 5 -10 5 -6 1 4 -5
-4 -20 -18 -34 -41 -45 -34 -50 34 -27 24 9 48 12 54 9 6 -4 8 -2 5 4 -4 6 15
17 49 28 31 9 58 23 61 30 2 7 18 18 34 24 16 7 27 16 24 20 -3 4 11 20 30 34
33 26 35 26 35 7 0 -20 -10 -25 -39 -22 -7 2 -10 -2 -7 -7 8 -14 -4 -43 -15
-36 -5 3 -9 2 -9 -3 0 -4 -19 -17 -43 -27 -23 -11 -49 -25 -57 -32 -17 -14
-145 -78 -174 -88 -13 -5 -17 -2 -13 9 4 8 -3 21 -16 31 -17 12 -17 15 -4 10
15 -5 17 -2 12 15 -5 14 -3 19 3 15 6 -4 10 2 9 14 -1 11 -5 20 -10 20 -4 0
-5 5 -2 10 3 6 -2 10 -12 10 -11 0 -14 3 -7 8 7 5 7 14 -1 29 -9 18 -14 20
-25 10 -12 -10 -12 -9 -1 5 7 10 18 16 24 15 7 -1 11 4 10 11 -2 6 2 12 8 12
5 0 7 5 4 10 -9 15 -27 1 -21 -17 4 -8 1 -11 -5 -7 -6 3 -25 -7 -42 -22 -17
-16 5 12 48 61 101 116 107 120 37 26 -13 -17 -19 -31 -13 -31 6 0 11 4 11 10
0 18 72 90 84 83 6 -3 8 -2 3 2 -4 5 -1 15 7 24 8 9 16 20 18 26 8 25 156 137
170 129 5 -3 7 -1 6 4 -4 12 341 302 360 302 1 0 -24 -33 -57 -72z m1147 65
c-17 -4 -18 -25 -18 -254 0 -137 -3 -249 -7 -249 -5 0 -7 112 -5 250 l3 250
-65 0 c-79 0 -116 -13 -116 -39 0 -11 5 -21 12 -23 12 -4 -19 -57 -34 -58 -5
0 -8 27 -8 60 l0 59 -72 4 c-40 2 17 3 127 4 110 0 192 -2 183 -4z m130 0
c-21 -2 -55 -2 -75 0 -21 2 -4 4 37 4 41 0 58 -2 38 -4z m-5281 -65 c-2 -13
-4 -5 -4 17 -1 22 1 32 4 23 2 -10 2 -28 0 -40z m888 -90 c83 -68 180 -145
215 -172 36 -27 98 -85 139 -129 41 -43 82 -82 91 -85 20 -8 110 -108 110
-122 0 -17 -7 -11 -30 23 -12 17 -19 23 -14 12 4 -11 7 -28 8 -37 0 -9 5 -14
10 -11 5 4 1 -5 -10 -19 -13 -18 -23 -23 -31 -17 -7 7 -14 6 -18 -1 -4 -6 -16
-8 -28 -4 -21 6 -21 6 -4 -13 29 -32 19 -36 -18 -6 -19 15 -33 34 -30 41 3 7
0 10 -5 7 -6 -4 -48 25 -93 63 -112 94 -316 250 -475 362 -72 51 -130 95 -128
98 3 2 17 -3 33 -12 27 -16 206 -86 218 -86 4 0 -26 35 -65 79 -39 43 -82 95
-96 115 -24 35 -22 34 53 -23 42 -33 79 -58 82 -56 2 3 -13 26 -35 52 -71 87
-72 88 -49 75 11 -6 88 -66 170 -134z m3842 -175 c-1 -54 -3 -10 -3 97 0 107
2 151 3 98 2 -54 2 -142 0 -195z m-150 100 c-3 -10 -5 -4 -5 12 0 17 2 24 5
18 2 -7 2 -21 0 -30z m505 -37 c5 -109 5 -107 -55 -104 l-52 3 -3 88 -3 87 55
0 54 0 4 -74z m-4915 7 c-3 -10 -5 -2 -5 17 0 19 2 27 5 18 2 -10 2 -26 0 -35z
m-377 -28 c0 -45 0 -45 -35 -45 -40 0 -47 15 -10 22 14 3 25 1 25 -5 0 -6 2
-8 5 -5 8 7 -13 58 -22 57 -5 -1 -20 -1 -35 0 -48 2 -30 17 22 20 l50 2 0 -46z
m307 -7 c-3 -7 -5 -2 -5 12 0 14 2 19 5 13 2 -7 2 -19 0 -25z m-392 -28 c3 -5
-1 -10 -9 -10 -9 0 -16 5 -16 10 0 6 4 10 9 10 6 0 13 -4 16 -10z m4360 -64
c-22 -19 -46 -31 -54 -28 -9 3 -12 1 -7 -6 3 -6 2 -13 -3 -16 -5 -4 -8 2 -7
11 2 10 9 18 17 18 8 0 30 13 49 28 49 38 53 33 5 -7z m-3888 -8 c-3 -7 -5 -2
-5 12 0 14 2 19 5 13 2 -7 2 -19 0 -25z m603 -60 c7 -2 10 -7 5 -10 -6 -3 -32
14 -60 39 -49 45 -49 45 -5 11 25 -19 52 -37 60 -40z m-663 -10 c-3 -8 -6 -5
-6 6 -1 11 2 17 5 13 3 -3 4 -12 1 -19z m703 -14 c0 -8 -19 -13 -24 -6 -3 5 1
9 9 9 8 0 15 -2 15 -3z m-743 -20 c-3 -3 -12 -4 -19 -1 -8 3 -5 6 6 6 11 1 17
-2 13 -5z m1651 -127 c66 -69 85 -97 64 -97 -5 0 -19 11 -32 25 -24 25 -47 35
-34 13 4 -7 3 -8 -4 -4 -6 4 -8 14 -5 23 4 11 2 14 -8 11 -8 -3 -13 -13 -12
-23 1 -12 -2 -14 -10 -6 -7 7 -7 14 1 23 13 16 -1 44 -17 34 -7 -5 -8 -1 -4
10 5 13 3 16 -10 11 -12 -4 -14 -2 -10 10 5 12 3 14 -7 8 -8 -5 -11 -4 -7 2 4
6 0 16 -9 23 -8 7 -25 27 -36 43 l-22 31 44 -31 c25 -17 78 -65 118 -106z
m1393 93 c-12 -17 -19 -36 -15 -42 5 -7 3 -8 -6 -3 -10 6 -12 4 -7 -7 3 -9 -2
-23 -13 -33 -11 -10 -17 -22 -14 -26 3 -5 -2 -6 -10 -3 -9 3 -16 1 -16 -5 0
-6 5 -11 10 -11 7 0 6 -5 -2 -13 -9 -10 -15 -11 -24 -3 -9 8 -6 16 12 33 13
12 24 25 24 29 0 4 -13 -5 -30 -21 -22 -21 -27 -32 -20 -44 5 -10 6 -22 2 -27
-8 -13 -82 -13 -82 0 0 10 203 212 209 208 3 -1 -5 -16 -18 -32z m1566 34 c-3
-3 -12 -4 -19 -1 -8 3 -5 6 6 6 11 1 17 -2 13 -5z m40 0 c-3 -3 -12 -4 -19 -1
-8 3 -5 6 6 6 11 1 17 -2 13 -5z m400 -216 c-1 -40 -3 -10 -3 67 0 77 1 110 3
73 2 -37 2 -100 0 -140z m-3348 149 c13 -15 40 -36 60 -45 20 -10 36 -22 36
-29 0 -6 4 -15 9 -20 5 -4 6 -3 3 4 -4 6 -2 13 4 15 8 3 4 18 -10 46 l-22 43
25 -16 c13 -9 27 -23 30 -31 3 -9 11 -12 18 -8 8 5 9 2 4 -11 -5 -15 -4 -16 9
-5 13 11 18 10 31 -9 9 -12 20 -18 26 -15 6 4 8 2 5 -3 -4 -6 0 -16 9 -23 12
-11 12 -15 2 -21 -7 -5 -13 -26 -13 -49 0 -30 4 -40 16 -40 11 0 15 8 14 25
-4 29 -3 29 42 13 27 -10 33 -17 33 -40 0 -16 -6 -28 -12 -28 -9 0 -8 -4 2
-10 13 -8 12 -10 -2 -10 -13 0 -18 8 -18 27 0 33 -9 26 -12 -11 -2 -18 -7 -25
-16 -21 -11 4 -11 0 2 -19 9 -14 16 -35 16 -47 0 -27 -13 -17 -17 14 -2 12 -8
26 -14 32 -7 7 -8 1 -3 -20 4 -16 8 -32 10 -34 2 -2 -1 -10 -6 -16 -7 -9 -7
-34 2 -79 13 -68 22 -81 33 -46 4 11 11 17 17 14 7 -5 7 -1 1 11 -6 10 -8 27
-5 39 4 21 4 21 -11 1 -9 -11 -19 -16 -24 -11 -4 5 -2 11 5 13 10 4 9 8 -4 17
-13 10 -15 17 -6 32 10 16 11 17 12 2 0 -23 17 -31 24 -12 3 8 2 13 -2 10 -4
-2 -7 18 -7 45 0 27 2 49 5 49 11 0 32 -18 32 -26 -1 -5 6 -8 15 -6 12 3 14
-2 9 -20 -3 -13 -6 -36 -6 -51 0 -26 -2 -27 -22 -16 -21 11 -22 11 -9 -4 10
-12 24 -15 59 -12 47 5 71 15 34 15 -17 0 -22 6 -22 25 0 14 -6 25 -12 26 -10
0 -10 2 0 6 6 2 9 9 6 14 -3 6 24 9 73 7 77 -3 78 -3 77 -29 -1 -23 2 -25 41
-25 46 0 47 4 32 71 -2 11 -2 14 0 8 3 -7 9 -13 14 -13 5 0 8 -3 8 -7 -4 -22
2 -43 11 -43 6 0 10 6 9 13 -3 23 3 52 8 40 3 -8 23 -13 49 -13 25 0 43 4 40
8 -2 4 11 6 30 4 29 -4 34 -8 35 -31 1 -28 3 -23 14 23 5 24 8 27 16 15 7 -10
9 2 7 39 -2 28 0 52 5 52 4 0 7 -18 7 -39 0 -24 5 -41 14 -44 8 -3 13 1 12 11
-1 12 8 17 29 18 17 0 29 6 28 12 -2 6 6 10 17 9 10 -1 17 -5 14 -9 -3 -4 4
-13 16 -20 23 -15 27 -33 5 -24 -9 3 -15 0 -15 -9 0 -8 -4 -15 -10 -15 -5 0
-10 -7 -10 -16 0 -14 1 -14 16 0 8 9 25 21 36 27 19 10 19 11 2 30 -9 10 -15
19 -13 19 2 1 21 3 42 6 29 4 38 3 35 -8 -1 -7 1 -15 7 -18 5 -3 10 9 11 25 1
17 2 40 3 53 1 15 7 22 22 22 18 0 20 -5 18 -47 -1 -27 -7 -54 -12 -60 -7 -10
-2 -13 20 -13 16 0 33 3 37 7 11 11 80 3 89 -10 4 -7 5 0 1 14 -3 15 -1 30 5
33 6 4 11 2 11 -4 0 -6 4 -9 9 -5 6 3 8 -12 7 -34 -3 -35 -1 -38 12 -25 8 8
17 12 20 9 4 -3 0 -10 -7 -14 -7 -5 -10 -14 -6 -20 4 -7 1 -18 -5 -26 -13 -15
-5 -55 11 -55 6 0 7 6 3 13 -5 9 -4 9 6 0 8 -7 22 -8 40 -3 21 6 32 4 41 -6 6
-8 14 -12 17 -9 3 2 -1 11 -8 20 -11 13 -10 14 4 9 11 -4 16 -1 16 11 0 9 -4
13 -10 10 -5 -3 -10 1 -10 9 0 14 3 14 20 4 11 -7 20 -21 20 -30 0 -10 5 -18
10 -18 14 0 13 6 -6 43 l-17 32 25 -23 c22 -20 31 -21 84 -16 37 4 72 16 94
30 19 13 38 24 43 24 5 0 40 14 79 31 68 30 133 46 124 30 -6 -10 -70 -41
-181 -89 -80 -35 -90 -42 -92 -66 -1 -15 -8 -35 -15 -44 -11 -13 -10 -15 5 -9
11 4 16 3 12 -4 -4 -6 -13 -8 -20 -5 -7 2 -18 -1 -25 -7 -10 -10 -10 -7 -1 13
11 23 11 24 -3 6 -9 -10 -13 -22 -11 -27 3 -4 1 -10 -5 -14 -6 -4 -8 -11 -4
-16 3 -6 20 1 39 15 19 15 38 26 44 26 6 0 11 5 11 11 0 5 4 8 9 5 4 -3 16 1
26 8 17 12 17 13 -3 11 -12 -1 -25 -4 -28 -8 -8 -8 -24 1 -24 13 0 5 19 7 42
6 23 -2 50 1 60 7 9 6 20 8 24 5 9 -9 -14 -29 -61 -53 -46 -24 -137 -105 -166
-149 l-21 -31 25 27 c22 24 26 25 30 10 3 -12 5 -10 6 6 0 13 5 21 11 17 5 -3
7 -13 4 -23 -5 -14 -4 -14 4 -3 7 9 7 21 2 32 -9 16 -4 29 11 29 5 0 6 -8 3
-17 -5 -16 -3 -15 10 1 9 11 19 17 22 13 4 -4 1 -14 -7 -24 -8 -9 -9 -14 -2
-10 6 4 13 4 16 0 2 -5 2 -3 1 4 -5 21 23 36 45 24 11 -6 24 -11 30 -11 17 0
13 27 -5 34 -8 3 -12 10 -9 16 3 5 -3 10 -15 10 -12 0 -18 -4 -15 -10 4 -6 -1
-7 -11 -3 -11 4 -13 8 -6 11 7 2 9 8 6 14 -10 17 39 -2 56 -21 13 -15 46 -19
75 -9 6 2 11 -1 13 -7 1 -5 -3 -10 -10 -10 -6 0 -12 -6 -14 -13 -1 -7 0 -8 2
-3 3 6 11 8 18 5 7 -3 21 5 32 17 10 13 13 19 7 15 -9 -5 -11 -2 -7 8 7 18 13
19 32 7 10 -6 5 -16 -22 -42 -35 -33 -48 -57 -23 -43 7 4 9 3 4 -2 -5 -5 -13
-9 -19 -9 -6 0 -22 -16 -36 -35 l-26 -35 28 28 c16 16 30 26 33 23 3 -3 -2
-12 -11 -21 -9 -9 -16 -18 -16 -21 0 -2 88 -4 195 -4 170 0 195 2 195 16 0 11
6 14 23 8 21 -6 21 -6 -3 14 -14 12 -20 21 -15 21 19 0 41 -24 41 -46 l0 -22
-624 0 c-627 -1 -686 -4 -723 -37 -8 -8 -27 -15 -42 -16 -14 -1 -23 -6 -21
-10 3 -5 11 -5 17 -2 14 8 -28 -42 -58 -69 -11 -10 -14 -16 -7 -12 15 8 15 0
2 -26 -7 -12 -21 -19 -41 -19 -33 0 -37 7 -41 65 -2 22 -7 43 -12 46 -4 4 1
16 12 27 12 12 17 24 12 27 -6 4 -10 0 -10 -7 -1 -7 -7 -2 -14 11 -11 21 -12
27 0 38 16 17 8 44 -12 36 -10 -3 -14 2 -14 18 0 19 -2 21 -10 9 -6 -10 -10
-11 -10 -2 0 6 -4 12 -10 12 -5 0 -7 -7 -4 -15 4 -9 1 -15 -7 -15 -8 0 -6 -5
6 -14 10 -7 26 -12 34 -11 9 1 10 0 4 -2 -17 -6 -17 -10 9 -51 12 -20 16 -32
10 -28 -7 4 -19 22 -28 39 -9 18 -22 35 -28 39 -21 14 -55 8 -66 -12 -6 -11
-15 -18 -21 -15 -5 4 -9 -3 -9 -14 0 -12 -4 -21 -10 -21 -5 0 -10 -5 -10 -11
0 -5 4 -8 9 -5 4 3 -2 -24 -15 -59 -13 -36 -20 -65 -16 -65 4 0 0 -5 -8 -10
-29 -19 -49 -10 -70 30 -34 66 -77 107 -136 130 -55 20 -125 23 -599 21 -485
-1 -629 0 -633 4 -4 4 223 9 360 8 15 0 25 4 22 8 -3 5 -10 7 -15 4 -5 -3 -7
0 -4 7 2 7 -9 29 -26 48 -17 19 -28 30 -25 23 4 -6 2 -14 -3 -18 -6 -3 -8 3
-6 15 2 12 -7 31 -25 49 -29 28 -29 29 -10 49 18 19 18 21 2 25 -16 4 -16 5 0
6 24 1 31 -15 13 -32 -19 -20 -19 -31 0 -24 8 4 27 0 42 -8 15 -8 33 -15 40
-15 17 0 64 -60 56 -73 -4 -7 -9 -4 -15 9 -8 18 -8 18 -5 -1 2 -14 9 -19 22
-17 11 2 17 0 12 -4 -8 -8 30 -54 45 -54 5 0 -4 12 -19 26 -21 19 -23 24 -9
20 11 -4 23 -1 28 6 13 21 9 36 -9 34 -13 -1 -18 6 -17 22 0 16 -4 21 -14 17
-10 -4 -13 0 -9 15 3 12 -1 24 -11 30 -11 6 -12 9 -4 10 7 0 10 4 7 10 -3 6 1
7 9 4 9 -3 16 -10 16 -16 0 -5 6 -6 13 -2 6 4 3 -2 -7 -14 -19 -22 -19 -22 8
-22 15 0 29 -7 32 -15 4 -8 11 -15 18 -15 6 0 -1 11 -15 23 -14 13 -24 28 -22
34 5 15 -124 106 -139 97 -8 -5 -9 -2 -5 9 5 14 2 16 -16 12 -12 -3 -35 -1
-52 4 -23 7 -15 8 39 6 48 -2 71 -7 77 -18 5 -8 20 -22 35 -32 15 -9 23 -12
19 -5 -5 8 -3 11 6 8 8 -3 14 -10 14 -15 0 -6 3 -14 7 -18 9 -9 5 16 -5 33
-14 21 11 13 34 -10 21 -22 21 -22 11 -2 -6 12 -8 24 -5 28 3 3 -5 6 -18 7
l-24 1 25 8 25 8 -25 2 c-23 1 -23 2 -5 9 16 6 9 11 -35 26 -104 33 -166 65
-183 95 l-17 29 56 -20 c31 -11 92 -38 135 -60 78 -39 79 -39 79 -16 0 30 24
64 34 49 4 -7 34 -12 71 -12 35 0 66 -3 68 -7 3 -5 -30 -6 -73 -3 -43 3 -76 2
-73 -2 2 -5 36 -8 75 -8 58 0 69 -3 64 -15 -4 -12 2 -15 28 -15 19 0 37 -6 39
-12 3 -7 6 6 6 28 1 42 1 42 44 46 47 5 59 1 37 -12 -11 -7 -11 -10 -2 -10 7
0 15 7 18 15 4 8 12 15 20 15 8 0 11 6 7 16 -4 12 -8 13 -14 3 -4 -7 -17 -13
-28 -14 -19 -2 -21 3 -20 54 2 51 2 53 9 21 l7 -35 2 30 c1 31 1 31 67 33 48
2 64 -1 58 -9 -5 -9 -3 -9 7 -3 8 5 28 10 44 11 17 1 50 4 75 7 25 3 39 3 31
0 -10 -5 -11 -8 -1 -14 15 -9 6 -40 -10 -40 -6 0 -8 6 -4 13 5 9 4 9 -6 0 -16
-14 -22 -43 -10 -43 4 0 13 7 20 15 6 8 17 13 23 12 6 -1 11 12 11 28 1 23 6
31 24 33 12 2 22 8 22 14 0 6 -9 8 -20 5 -12 -3 -18 -1 -14 5 4 6 1 9 -7 6 -8
-3 -20 1 -27 8 -13 14 -46 8 -37 -6 5 -8 -18 -20 -38 -20 -7 0 -4 7 6 14 17
13 16 15 -11 37 -31 27 -122 147 -101 133 8 -4 25 -21 38 -37z m-199 -30 c-1
-13 -26 16 -41 48 -7 13 -1 10 15 -8 14 -15 26 -33 26 -40z m1291 30 c-10 -9
-11 -8 -5 6 3 10 9 15 12 12 3 -3 0 -11 -7 -18z m93 -33 c-21 -26 -43 -45 -49
-44 -5 1 -12 -7 -16 -17 -7 -15 -8 -16 -8 -1 -1 17 99 122 107 113 3 -3 -12
-26 -34 -51z m-283 23 c-10 -9 -11 -8 -5 6 3 10 9 15 12 12 3 -3 0 -11 -7 -18z
m1112 8 c-3 -9 -8 -14 -10 -11 -3 3 -2 9 2 15 9 16 15 13 8 -4z m-597 -31 c-4
-9 -9 -15 -11 -12 -3 3 -3 13 1 22 4 9 9 15 11 12 3 -3 3 -13 -1 -22z m-2218
-4 c10 0 36 -15 58 -33 46 -40 169 -104 237 -124 26 -8 45 -18 42 -23 -10 -16
7 -11 27 7 16 14 18 14 13 1 -3 -8 -16 -20 -28 -25 -25 -11 -100 15 -185 66
-29 17 -56 31 -59 31 -12 0 -139 88 -154 106 -13 16 -12 16 8 6 12 -7 30 -12
41 -12z m1875 5 c-3 -9 -8 -14 -10 -11 -3 3 -2 9 2 15 9 16 15 13 8 -4z m977
11 c0 -2 -8 -10 -17 -17 -16 -13 -17 -12 -4 4 13 16 21 21 21 13z m-608 -29
c-12 -13 -19 -27 -15 -31 4 -4 -1 -4 -11 0 -16 6 -15 9 11 30 36 30 42 30 15
1z m-1075 -76 l13 -26 -6 25 c-7 28 -2 26 16 -9 9 -19 9 -22 0 -16 -10 6 -12
1 -8 -19 4 -17 1 -25 -6 -23 -6 2 -10 12 -8 22 3 12 -1 16 -12 12 -8 -3 -18
-1 -22 5 -4 7 -3 8 4 4 19 -12 14 16 -14 69 l-25 50 28 -34 c15 -19 34 -46 40
-60z m-584 55 c4 -10 1 -13 -8 -9 -8 3 -12 9 -9 14 7 12 11 11 17 -5z m1721 6
c3 -5 -1 -9 -9 -9 -8 0 -12 4 -9 9 3 4 7 8 9 8 2 0 6 -4 9 -8z m-429 -20 c-3
-3 -11 0 -18 7 -9 10 -8 11 6 5 10 -3 15 -9 12 -12z m915 11 c-8 -3 -22 -11
-30 -17 -13 -10 -13 -9 -1 7 7 9 21 17 30 16 13 0 14 -1 1 -6z m-2318 -53 c-6
-15 -11 -19 -16 -12 -4 7 -1 18 6 26 17 19 20 14 10 -14z m806 -31 c13 -22 21
-43 18 -47 -7 -7 -6 -8 -40 50 -14 26 -21 45 -14 43 7 -3 23 -24 36 -46z m232
43 c0 -4 -14 -40 -30 -80 -17 -40 -29 -76 -26 -80 2 -4 -4 -9 -15 -9 -29 -3
-24 31 18 108 33 61 53 84 53 61z m-2712 -19 c-10 -2 -26 -2 -35 0 -10 3 -2 5
17 5 19 0 27 -2 18 -5z m1988 -15 c10 -12 13 -18 5 -13 -20 12 -53 13 -76 1
-18 -8 -19 -8 -6 8 8 10 21 14 32 11 11 -4 19 -2 19 4 0 16 4 14 26 -11z m294
12 c0 -5 -2 -10 -4 -10 -3 0 -8 5 -11 10 -3 6 -1 10 4 10 6 0 11 -4 11 -10z
m29 -12 c-8 -14 -6 -18 8 -19 10 0 13 -3 6 -5 -7 -3 -20 -1 -30 5 -10 6 -13
11 -6 11 7 0 10 6 7 13 -3 8 2 14 10 14 11 0 13 -5 5 -19z m555 4 c3 -5 -1 -9
-9 -9 -8 0 -12 4 -9 9 3 4 7 8 9 8 2 0 6 -4 9 -8z m-979 -12 c3 -6 -1 -7 -9
-4 -18 7 -21 14 -7 14 6 0 13 -4 16 -10z m175 -5 c0 -2 -9 -3 -19 -2 -11 0
-18 5 -15 9 4 6 34 0 34 -7z m1073 -2 c-7 -2 -19 -2 -25 0 -7 3 -2 5 12 5 14
0 19 -2 13 -5z m-2032 -31 c-7 -2 -18 1 -23 6 -8 8 -4 9 13 5 13 -4 18 -8 10
-11z m1463 -79 c6 -18 4 -22 -9 -17 -30 12 -57 88 -38 108 7 7 31 -39 47 -91z
m524 64 c-2 -30 -4 -33 -27 -28 -25 5 -25 6 -3 9 16 2 22 10 22 28 0 13 2 24
5 24 3 0 5 -15 3 -33z m-181 -27 c31 0 26 -9 -9 -15 -20 -4 -24 0 -25 23 0 15
1 19 4 10 3 -11 14 -18 30 -18z m1019 0 c-22 -10 -46 -15 -55 -12 -11 4 -4 10
24 18 59 18 76 15 31 -6z m-309 4 c-3 -3 -12 -4 -19 -1 -8 3 -5 6 6 6 11 1 17
-2 13 -5z m-10 -36 c-3 -8 -6 -5 -6 6 -1 11 2 17 5 13 3 -3 4 -12 1 -19z
m-2030 6 c-3 -3 -12 -4 -19 -1 -8 3 -5 6 6 6 11 1 17 -2 13 -5z m876 -11 c-4
-10 -2 -14 4 -10 5 3 10 -1 10 -9 0 -10 -4 -11 -11 -4 -13 13 -29 13 -21 0 10
-16 -1 -11 -16 7 -8 9 -9 14 -3 10 7 -4 17 0 24 8 16 20 21 19 13 -2z m260 2
c-3 -9 -8 -14 -10 -11 -3 3 -2 9 2 15 9 16 15 13 8 -4z m-201 -10 c2 3 5 -2 5
-10 0 -19 0 -19 -23 7 -12 14 -13 18 -3 10 9 -6 18 -10 21 -7z m-742 -30 c0
-20 -5 -25 -25 -25 -23 0 -27 10 -16 48 1 1 10 2 21 2 15 0 20 -7 20 -25z
m787 -17 c-3 -8 -6 -5 -6 6 -1 11 2 17 5 13 3 -3 4 -12 1 -19z m842 -58 c-7
-11 -8 -9 -4 8 6 19 2 25 -16 29 -22 6 -22 7 -3 14 17 7 16 8 -6 9 l-25 2 25
7 c22 6 26 3 32 -23 3 -17 2 -37 -3 -46z m-803 34 c8 3 13 2 10 -3 -3 -5 -17
-8 -31 -8 -14 0 -28 3 -31 8 -3 5 2 6 10 3 11 -4 16 0 17 12 1 18 2 18 6 1 3
-11 11 -16 19 -13z m-2052 -30 c3 -8 2 -12 -4 -9 -6 3 -10 10 -10 16 0 14 7
11 14 -7z m3270 -18 c-6 -17 -34 -30 -34 -16 0 5 8 14 18 19 22 13 22 13 16
-3z m41 -6 c-27 -12 -43 -12 -25 0 8 5 22 9 30 9 10 0 8 -3 -5 -9z m-190 -10
c3 -5 1 -10 -4 -10 -6 0 -11 5 -11 10 0 6 2 10 4 10 3 0 8 -4 11 -10z m956
-13 c-10 -9 -11 -8 -5 6 3 10 9 15 12 12 3 -3 0 -11 -7 -18z m-4048 -10 c13
-20 13 -24 1 -24 -8 0 -12 2 -9 5 2 3 0 13 -6 23 -14 27 -4 24 14 -4z m897 17
c0 -8 -19 -13 -24 -6 -3 5 1 9 9 9 8 0 15 -2 15 -3z m-310 -28 c0 -2 -11 -6
-25 -8 -13 -3 -22 -1 -19 3 5 9 44 13 44 5z m1133 -16 c-3 -11 -7 -20 -9 -20
-2 0 -4 9 -4 20 0 11 4 20 9 20 5 0 7 -9 4 -20z m-919 -19 c4 -5 -3 -7 -14 -4
-23 6 -26 13 -6 13 8 0 17 -4 20 -9z m73 -61 c1 -16 -1 -17 -12 -7 -11 10 -8
19 10 27 1 0 1 -9 2 -20z m2208 0 c3 -5 1 -10 -4 -10 -6 0 -11 5 -11 10 0 6 2
10 4 10 3 0 8 -4 11 -10z m-2580 -30 c-3 -5 -12 -10 -18 -10 -7 0 -6 4 3 10
19 12 23 12 15 0z m-44 -7 c-11 -5 -11 -7 0 -15 11 -7 9 -8 -5 -4 -10 4 -24 3
-30 -1 -7 -5 -3 0 7 10 11 9 24 17 31 16 6 0 5 -3 -3 -6z m3103 -1 c3 -5 -1
-9 -9 -9 -8 0 -15 4 -15 9 0 4 4 8 9 8 6 0 12 -4 15 -8z m52 -18 c18 -14 18
-14 -6 -3 -31 14 -36 19 -24 19 6 0 19 -7 30 -16z m1272 -339 c126 -4 147 -15
31 -16 -151 -2 -134 14 -137 -121 l-3 -118 112 0 c62 0 110 -3 106 -6 -7 -7
-868 -7 -875 1 -3 3 52 5 121 5 l127 0 0 122 0 121 -135 -6 c-74 -3 -137 -2
-139 2 -6 9 121 21 217 21 l57 0 2 48 1 47 6 -48 6 -47 193 -3 192 -2 2 180 2
180 6 -178 5 -178 103 -4z m-3958 314 c0 -4 -7 -6 -15 -3 -8 4 -15 10 -15 15
0 4 7 6 15 3 8 -4 15 -10 15 -15z m2670 12 c3 0 6 -10 7 -20 1 -13 -3 -18 -12
-15 -8 3 -11 13 -8 21 5 12 1 14 -15 8 -12 -3 -22 -2 -22 3 0 8 25 9 50 3z
m460 5 c0 -2 -8 -10 -17 -17 -16 -13 -17 -12 -4 4 13 16 21 21 21 13z m-3250
-42 c0 -16 -26 -19 -34 -5 -4 5 -3 16 0 25 5 13 9 14 20 5 8 -6 14 -18 14 -25z
m-1399 16 l39 0 0 -91 c0 -68 -3 -90 -12 -87 -7 3 -14 19 -16 36 -3 28 -7 31
-40 34 l-37 3 -3 59 c-3 51 -1 58 13 52 9 -3 34 -6 56 -6z m588 -24 c3 3 -3
12 -13 20 -11 8 -15 14 -9 14 15 0 36 -27 29 -39 -4 -6 -18 -3 -35 7 -16 9
-27 20 -25 24 3 4 15 -1 26 -12 12 -11 24 -17 27 -14z m411 30 c0 -2 -8 -10
-17 -17 -16 -13 -17 -12 -4 4 13 16 21 21 21 13z m4318 -5 c9 -5 12 -31 10
-92 l-3 -84 -37 -3 c-67 -6 -78 8 -78 98 0 66 3 79 18 83 29 8 76 7 90 -2z
m-3964 -26 c3 -8 1 -15 -3 -15 -5 0 -11 7 -15 15 -3 8 -1 15 3 15 5 0 11 -7
15 -15z m-348 -7 c4 -7 3 -8 -4 -4 -7 4 -12 2 -12 -3 0 -6 -10 -11 -22 -11
-23 1 -23 1 2 15 31 18 27 17 36 3z m3594 8 c0 -2 -8 -10 -17 -17 -16 -13 -17
-12 -4 4 13 16 21 21 21 13z m90 -45 c-28 -56 -35 -52 -8 4 12 24 23 43 26 41
2 -2 -6 -22 -18 -45z m-4030 -7 c0 -2 -13 2 -30 11 -16 9 -30 18 -30 21 0 2
14 -2 30 -11 17 -9 30 -18 30 -21z m1601 -97 c24 -13 56 -41 71 -63 l26 -39
-6 -165 c-6 -136 -8 -153 -13 -95 -5 61 -6 55 -7 -47 -1 -65 0 -118 3 -118 3
0 10 10 15 23 8 20 9 19 9 -10 1 -23 -4 -33 -14 -33 -11 0 -15 -13 -16 -52 0
-29 -7 -87 -14 -128 l-14 -75 4 60 c2 33 7 90 11 128 l6 67 -58 2 -59 2 58 3
57 4 0 142 c-1 102 -5 153 -16 182 -8 22 -19 52 -24 68 -10 30 -33 57 -49 57
-6 0 -11 4 -11 10 0 5 -7 7 -15 4 -8 -4 -15 -1 -15 6 0 10 -3 10 -15 0 -12
-10 -15 -10 -16 1 0 8 -2 10 -5 4 -3 -7 -195 -9 -556 -7 -304 1 -560 -1 -568
-4 -8 -4 -19 -6 -23 -5 -4 0 -17 -4 -29 -10 -15 -8 -19 -8 -14 0 4 6 -9 2 -28
-10 -39 -23 -42 -29 -23 -48 10 -11 8 -11 -10 -2 -13 6 -23 8 -23 4 1 -13 30
-48 30 -35 0 7 4 12 9 12 5 0 3 -21 -5 -47 -9 -30 -14 -95 -14 -185 l0 -138
28 -1 27 -2 -29 -4 -29 -5 6 -91 c7 -97 44 -263 71 -316 27 -52 77 -101 128
-127 l49 -25 477 3 c533 3 504 0 586 77 l38 36 -20 -40 c-30 -59 -71 -94 -124
-103 -25 -5 -259 -9 -520 -8 l-473 1 -41 23 c-22 13 -49 37 -59 54 -10 18 -20
26 -24 19 -8 -12 -61 65 -61 89 1 8 12 -7 26 -33 14 -27 28 -46 31 -43 3 3 -4
20 -15 39 -25 44 -57 134 -76 220 -19 80 -23 508 -6 552 7 17 7 32 0 43 -9 17
-11 15 -14 -10 -1 -7 -7 -12 -14 -10 -7 1 -12 -2 -12 -8 0 -5 -4 -10 -10 -10
-6 0 -10 34 -10 83 0 78 2 85 28 109 15 14 36 30 47 36 14 8 214 11 666 12
l646 0 44 -23z m2045 7 c55 -26 64 -47 63 -149 l-1 -90 -16 47 c-8 26 -22 50
-31 53 -8 3 -12 3 -8 -1 4 -4 1 -14 -6 -23 -10 -14 -10 -14 4 -4 13 10 16 7
19 -25 6 -55 4 -545 -2 -632 -12 -163 -83 -273 -203 -314 -45 -16 -983 -14
-1031 2 -52 17 -74 35 -105 88 -45 80 -98 320 -99 452 0 23 -5 42 -10 42 -7 0
-11 20 -10 48 1 26 -2 126 -6 222 l-6 175 31 43 c63 85 31 82 749 82 566 0
638 -2 668 -16z m-3698 -29 c-3 -3 -9 2 -12 12 -6 14 -5 15 5 6 7 -7 10 -15 7
-18z m152 -109 c0 -83 0 -83 -25 -79 l-24 5 -3 -96 c-2 -53 -7 -95 -12 -94 -5
2 -8 23 -8 48 0 25 0 102 1 173 l1 127 35 0 35 0 0 -84z m3780 -91 c0 -149 -2
-175 -15 -175 -13 0 -15 23 -17 138 -1 75 -3 120 -5 100 -3 -25 -9 -38 -19
-38 -8 0 -14 -4 -14 -10 0 -5 -6 -9 -12 -7 -21 4 -39 143 -21 160 3 4 28 7 55
7 l48 0 0 -175z m-3933 -42 c-2 -37 -3 -9 -3 62 0 72 1 102 3 68 2 -34 2 -93
0 -130z m1493 86 c0 -6 6 -9 14 -6 8 3 22 -1 33 -8 17 -13 17 -14 -2 -9 -16 4
-23 -2 -32 -26 -6 -16 -7 -28 -2 -24 5 3 9 0 9 -5 0 -6 -9 -11 -20 -11 -11 0
-20 5 -20 10 0 7 -7 7 -22 -1 -20 -11 -20 -12 -3 -21 9 -6 27 -20 39 -32 20
-20 21 -29 21 -267 0 -198 -3 -249 -14 -263 -33 -40 -59 -43 -316 -47 l-250
-4 -5 315 c-3 173 -8 308 -12 300 -5 -12 -7 -12 -7 3 -1 14 -10 17 -52 17 -41
0 -50 3 -46 15 4 8 2 17 -3 20 -6 4 -10 -3 -10 -14 0 -12 -4 -21 -8 -21 -5 0
-9 -8 -9 -17 1 -10 0 -156 -1 -325 l-2 -308 -65 0 -65 0 0 260 0 259 -82 3
-83 3 -5 52 c-4 42 -2 55 12 68 10 8 18 24 18 34 0 11 5 23 10 26 6 4 8 10 5
15 -3 5 3 11 12 13 10 3 231 5 491 6 339 1 472 -2 472 -10z m-1025 -9 c-3 -5
-11 -10 -16 -10 -6 0 -7 5 -4 10 3 6 11 10 16 10 6 0 7 -4 4 -10z m1715 -57
c0 -91 -11 -154 -21 -128 -7 17 -8 18 -8 3 -1 -14 -10 -18 -38 -19 -21 0 -95
-2 -165 -4 l-128 -4 0 109 0 110 180 0 180 0 0 -67z m-1757 32 c-3 -9 -8 -14
-10 -11 -3 3 -2 9 2 15 9 16 15 13 8 -4z m1161 -21 c3 -8 2 -12 -4 -9 -6 3
-10 10 -10 16 0 14 7 11 14 -7z m-1592 -173 c-5 -3 -25 -30 -44 -59 -23 -35
-38 -49 -42 -40 -3 8 -8 9 -11 3 -15 -28 -25 -39 -30 -33 -8 7 40 118 51 118
3 0 3 -8 0 -17 -4 -12 2 -9 15 7 12 14 29 25 38 25 11 0 17 11 21 35 l4 35 4
-34 c2 -19 -1 -37 -6 -40z m4040 2 c5 -6 16 -9 24 -6 8 3 14 0 14 -7 0 -6 -4
-8 -10 -5 -5 3 -10 2 -10 -4 0 -19 21 -23 34 -6 11 15 15 12 33 -31 12 -27 24
-62 28 -79 l7 -30 -22 25 c-24 29 -44 70 -41 85 2 6 -1 7 -5 2 -14 -13 -74 55
-73 82 1 21 2 22 6 6 3 -11 9 -25 15 -32z m-4755 -45 c-3 -7 -5 -2 -5 12 0 14
2 19 5 13 2 -7 2 -19 0 -25z m2460 -20 c-3 -8 -6 -5 -6 6 -1 11 2 17 5 13 3
-3 4 -12 1 -19z m-2460 -55 c-3 -10 -5 -4 -5 12 0 17 2 24 5 18 2 -7 2 -21 0
-30z m728 -95 c-105 -207 -123 -245 -138 -298 -25 -87 -45 -180 -52 -240 l-6
-55 22 53 c20 51 30 59 35 27 1 -8 -2 -15 -7 -15 -4 0 -7 -33 -6 -74 2 -41 -1
-73 -5 -70 -4 2 -5 -5 -3 -16 4 -20 0 -20 -386 -20 l-389 0 0 110 0 110 365 0
c316 0 365 2 365 15 0 13 -49 15 -362 17 l-363 3 0 110 0 110 372 2 372 2 7
-32 c7 -31 8 -30 31 38 35 105 107 245 147 289 20 21 39 36 42 33 4 -3 -15
-48 -41 -99z m395 82 c0 -5 -7 -10 -16 -10 -8 0 -12 5 -9 10 3 6 10 10 16 10
5 0 9 -4 9 -10z m3619 -45 c44 -61 99 -180 143 -310 21 -60 36 -99 34 -85 -17
96 -18 117 -3 123 18 7 631 7 712 0 l60 -5 0 -107 0 -106 -383 0 c-356 0 -382
-1 -382 -17 0 -17 27 -18 383 -20 l382 -3 0 -105 0 -105 -394 -3 c-253 -1
-398 1 -405 8 -5 5 -11 39 -12 74 -2 71 -8 88 -29 80 -10 -4 -13 -19 -10 -52
4 -45 4 -45 -10 13 -8 33 -14 87 -13 120 1 33 3 47 5 30 2 -16 7 -37 10 -45 3
-8 5 -23 4 -34 -2 -11 2 -16 11 -13 7 2 12 10 10 16 -1 6 2 11 7 11 5 0 21
-29 37 -65 15 -35 29 -63 31 -61 4 3 -34 197 -52 266 -20 75 -54 156 -130 311
-36 72 -65 133 -65 135 0 14 33 -14 59 -51z m-2436 38 c-7 -2 -21 -2 -30 0
-10 3 -4 5 12 5 17 0 24 -2 18 -5z m-1758 -73 c4 -6 4 -54 0 -106 l-7 -94
-372 2 -371 3 -3 103 -3 102 375 0 c251 0 377 -3 381 -10z m5133 -97 l3 -103
-379 0 -379 0 -7 53 c-3 28 -6 70 -6 93 0 22 -5 45 -12 52 -10 10 73 12 382
10 l395 -3 3 -102z m-2827 -48 c5 -22 27 -93 48 -157 21 -65 35 -118 30 -118
-5 0 -9 -8 -9 -17 0 -14 2 -15 9 -5 5 9 12 -1 21 -33 7 -25 10 -48 6 -52 -3
-3 -6 1 -6 10 0 9 -4 18 -9 21 -5 3 -1 -27 10 -67 10 -39 19 -85 19 -101 0
-32 -34 -76 -59 -76 -14 0 -14 -2 -2 -9 26 -17 -57 -26 -208 -24 -106 2 -146
6 -155 16 -6 7 -23 21 -38 30 -40 25 -43 56 -18 153 12 47 19 88 16 92 -3 3
-6 -3 -6 -13 0 -10 -2 -16 -5 -13 -10 10 7 58 17 52 6 -4 8 1 4 14 -4 11 -2
23 4 27 5 3 10 12 10 18 0 7 -4 6 -11 -3 -9 -12 -10 -11 -4 5 4 11 24 77 46
148 21 70 40 131 43 135 2 4 56 7 120 7 l117 0 10 -40z m-446 -112 c-10 -53
-18 -32 -9 24 4 26 10 40 12 30 2 -11 1 -35 -3 -54z m-1385 -3 c5 -19 6 -29 1
-24 -10 10 -26 72 -17 63 4 -4 11 -21 16 -39z m-76 -373 c19 -32 26 -55 22
-72 -3 -13 -2 -27 4 -30 5 -3 10 -15 10 -27 0 -17 2 -18 15 -8 13 10 19 10 35
-5 11 -10 17 -23 13 -29 -3 -6 -2 -8 2 -3 5 4 17 0 27 -10 20 -18 25 -38 6
-27 -7 4 -8 3 -4 -5 4 -6 12 -9 17 -5 13 8 40 -16 32 -29 -3 -5 -1 -7 4 -4 6
4 33 -11 59 -32 27 -21 68 -45 92 -53 23 -8 39 -18 35 -23 -5 -4 -2 -5 5 -1 7
4 10 11 7 16 -3 5 16 8 42 6 27 -2 111 4 188 11 134 14 482 13 590 -2 l40 -5
-35 14 c-19 9 -86 27 -149 41 -63 14 -117 28 -120 31 -10 10 100 103 136 116
20 7 32 17 29 25 -3 7 -1 13 3 13 5 0 12 -6 14 -12 4 -8 6 -7 6 4 1 22 67 33
120 18 53 -14 115 -69 153 -137 37 -66 97 -120 141 -128 31 -6 36 -12 46 -51
8 -31 21 -51 48 -71 20 -15 54 -44 75 -63 37 -32 40 -37 34 -75 -14 -85 -94
-158 -232 -210 -83 -32 -236 -50 -292 -36 -20 5 -55 12 -76 16 -45 6 -89 31
-129 73 l-28 29 98 48 c54 26 135 65 181 86 82 39 106 55 55 39 -16 -5 -64
-20 -108 -33 -298 -92 -855 -312 -855 -338 0 -5 -9 -9 -19 -9 -22 0 -142 -62
-253 -131 -43 -26 -80 -44 -83 -39 -7 12 72 71 184 137 67 40 89 58 80 64 -8
5 -9 9 -4 10 50 5 87 18 200 73 72 35 200 87 285 116 85 29 160 58 165 65 6 6
17 10 25 8 13 -4 13 -3 0 6 -8 5 -17 8 -21 5 -4 -2 -9 3 -13 11 -3 8 0 14 6
12 6 -1 13 4 16 12 2 8 0 11 -6 7 -6 -3 -14 -1 -18 5 -4 8 -3 9 4 5 7 -4 12
-1 12 9 0 9 -4 13 -10 10 -5 -3 -10 -4 -10 -1 0 15 137 72 235 97 l110 29
-165 -3 c-91 -2 -173 -7 -183 -12 -16 -7 -17 -4 -11 21 5 16 8 37 8 46 0 9 3
16 6 16 24 -2 62 3 57 8 -10 11 -529 -54 -619 -77 -41 -10 -61 -12 -90 -8 -18
3 -201 -30 -268 -48 -30 -8 -82 -19 -115 -23 -93 -14 -222 -55 -276 -89 -36
-22 -49 -26 -49 -16 0 8 4 15 8 15 5 0 14 11 21 24 7 13 18 23 25 22 6 0 64
17 129 38 83 27 115 42 105 48 -9 7 -7 8 9 5 13 -3 20 0 17 7 -3 7 16 11 58
11 65 1 195 34 168 43 -23 8 -40 35 -36 55 2 9 1 15 -4 12 -4 -2 -13 16 -20
40 -13 45 -29 60 -31 28 -1 -12 -4 -9 -8 7 l-7 25 -8 -24 c-6 -16 -4 -26 5
-32 13 -8 11 -10 -8 -8 -4 0 -11 -8 -15 -18 -4 -10 -5 0 -2 22 4 29 3 36 -5
25 -8 -11 -10 -6 -8 22 1 20 7 41 11 45 5 4 7 1 4 -8 -4 -9 -2 -22 3 -30 6
-10 9 -10 9 -2 0 14 41 13 51 0 3 -5 9 -1 12 8 4 9 3 14 -2 11 -5 -3 -11 3
-14 13 -4 15 -11 18 -27 14 -16 -4 -21 -3 -16 5 4 7 14 12 23 12 9 0 13 3 9 8
-4 4 -17 7 -29 7 -13 0 -27 10 -34 25 -12 23 -13 22 -8 -20 l5 -45 -11 40 c-5
22 -8 54 -5 70 4 22 3 26 -4 15 -14 -21 -13 155 1 221 l11 52 27 -69 c15 -38
40 -90 55 -117z m3620 116 c-4 -22 -3 -25 5 -13 10 13 11 13 12 0 0 -8 4 -4 8
10 7 21 9 15 16 -33 11 -82 -13 -296 -37 -324 -6 -7 -6 -13 -1 -13 11 0 4 -68
-8 -76 -5 -3 -9 0 -9 6 0 6 -4 9 -9 6 -5 -4 -7 4 -4 16 4 18 2 20 -5 9 -9 -12
-12 -10 -17 11 -9 36 -35 45 -36 13 -1 -14 -3 -29 -4 -35 -1 -5 -3 -19 -4 -31
0 -11 -5 -17 -11 -14 -5 3 -10 -1 -10 -10 0 -8 -10 -20 -22 -25 -21 -8 -22 -9
-3 -10 19 -1 19 -2 2 -9 -14 -5 7 -15 73 -34 88 -27 93 -27 112 -11 18 17 19
17 12 -1 -5 -13 -4 -16 4 -11 7 4 12 3 12 -2 0 -12 33 -26 172 -72 88 -28 124
-36 129 -28 5 7 10 1 15 -15 9 -39 2 -41 -46 -17 -46 23 -261 82 -288 79 -9
-1 -30 4 -47 10 -27 12 -238 52 -340 65 -22 3 -114 16 -205 30 -91 13 -217 30
-280 36 -63 7 -119 13 -125 13 -5 1 -8 -15 -6 -35 3 -44 23 -40 -214 -39
l-140 0 119 -30 c147 -37 226 -78 226 -118 0 -14 -7 -36 -15 -47 -13 -20 -12
-22 23 -37 20 -9 69 -26 107 -38 77 -24 282 -112 385 -164 36 -19 72 -36 80
-39 50 -19 310 -192 310 -206 0 -16 -4 -14 -123 58 -103 62 -180 103 -217 116
-8 3 -22 10 -30 15 -20 13 -339 152 -420 184 -99 38 -251 90 -400 137 -74 23
-138 44 -142 47 -5 2 -8 1 -8 -2 0 -3 79 -44 175 -91 96 -47 175 -89 175 -93
0 -12 -57 -54 -107 -80 -75 -38 -241 -45 -358 -16 -163 41 -295 152 -295 249
0 26 63 90 104 106 24 9 56 64 56 97 0 14 15 26 53 41 64 27 94 57 139 137 40
71 104 119 173 129 52 8 115 -1 95 -14 -9 -5 2 -15 33 -28 57 -25 111 -66 137
-102 l19 -27 -97 -23 c-53 -12 -122 -31 -152 -41 l-55 -19 80 8 c108 10 442 9
535 -1 41 -5 96 -10 122 -12 25 -3 68 -9 94 -15 45 -10 50 -9 91 20 24 17 47
28 53 25 5 -3 10 0 10 7 0 7 13 22 30 33 49 35 144 130 173 173 15 23 30 42
33 42 3 0 -4 -13 -16 -30 -12 -16 -18 -35 -14 -41 5 -8 3 -9 -6 -4 -8 5 -11 3
-8 -6 5 -14 25 -19 42 -10 5 2 26 5 45 5 33 1 36 3 33 28 -2 14 1 28 5 31 5 3
9 -12 8 -33 -1 -21 2 -37 6 -35 9 6 19 45 10 45 -3 0 -6 18 -6 39 0 27 3 37
10 31 8 -6 11 11 12 58 0 52 -1 58 -6 27 -4 -27 -9 -36 -14 -27 -5 7 -7 19 -4
25 3 7 -3 13 -12 13 -10 0 -16 -9 -16 -23 0 -14 5 -21 12 -19 14 6 39 -22 29
-31 -4 -4 -10 -3 -14 3 -4 6 -15 10 -25 8 -9 -1 -15 2 -12 6 3 5 1 11 -4 15
-5 3 -14 -3 -20 -12 -6 -10 -11 -13 -11 -6 0 6 4 14 10 18 5 3 19 33 31 65 23
64 33 78 23 33z m-3944 -53 c0 -5 -2 -10 -4 -10 -3 0 -8 5 -11 10 -3 6 -1 10
4 10 6 0 11 -4 11 -10z m-15 -40 c3 -6 -1 -7 -9 -4 -18 7 -21 14 -7 14 6 0 13
-4 16 -10z m4242 -62 c-3 -8 -6 -5 -6 6 -1 11 2 17 5 13 3 -3 4 -12 1 -19z
m17 -53 c5 -22 4 -26 -4 -15 -5 8 -10 24 -10 34 0 26 6 18 14 -19z m-327 -22
c-3 -10 -5 -4 -5 12 0 17 2 24 5 18 2 -7 2 -21 0 -30z m-47 23 c0 -2 -8 -10
-17 -17 -16 -13 -17 -12 -4 4 13 16 21 21 21 13z m-3930 -23 c0 -5 -6 -25 -14
-47 -7 -21 -12 -51 -10 -67 3 -23 -4 -36 -34 -64 l-37 -34 -337 -1 -338 0 0
110 0 110 385 0 c212 0 385 -3 385 -7z m5130 -103 l0 -110 -334 0 -333 0 -39
31 c-22 17 -46 35 -54 40 -11 8 -12 11 -2 15 6 3 12 12 12 20 0 22 -39 94 -50
94 -6 0 -10 5 -10 10 0 7 142 10 405 10 l405 0 0 -110z m-3080 28 c19 -5 51
-23 70 -40 l35 -29 -50 24 c-52 26 -134 51 -141 44 -3 -2 15 -9 38 -16 41 -10
114 -51 93 -51 -6 0 -36 9 -66 19 -33 12 -75 19 -106 17 -47 -2 -51 0 -42 17
20 37 76 42 169 15z m-1997 -8 c-3 -11 -9 -20 -15 -20 -5 0 -4 9 2 20 6 11 12
20 14 20 2 0 2 -9 -1 -20z m2368 10 c36 -20 22 -36 -33 -39 -28 -1 -67 -9 -87
-17 -49 -21 -110 -29 -93 -12 24 24 11 31 -14 7 -17 -16 -23 -18 -19 -7 21 54
186 99 246 68z m-2308 -29 c2 -10 1 -25 -4 -32 -6 -10 -9 -4 -9 19 0 36 5 42
13 13z m264 -13 c-3 -8 -6 -5 -6 6 -1 11 2 17 5 13 3 -3 4 -12 1 -19z m-210
-30 c-3 -8 -6 -5 -6 6 -1 11 2 17 5 13 3 -3 4 -12 1 -19z m4080 -10 c-3 -8 -6
-5 -6 6 -1 11 2 17 5 13 3 -3 4 -12 1 -19z m-4088 -52 c6 -22 9 -42 6 -44 -2
-2 -9 16 -15 39 -7 24 -17 51 -23 59 -10 13 -9 13 5 0 9 -8 21 -33 27 -54z
m-67 9 c-3 -5 2 -4 11 4 15 12 17 10 16 -25 0 -22 -4 -48 -8 -59 l-8 -20 -6
20 c-12 42 -19 120 -8 105 5 -8 7 -19 3 -25z m4049 12 c-10 -9 -11 -8 -5 6 3
10 9 15 12 12 3 -3 0 -11 -7 -18z m96 -19 c-3 -8 -6 -5 -6 6 -1 11 2 17 5 13
3 -3 4 -12 1 -19z m-16 -18 c5 0 9 -17 8 -37 0 -36 -1 -37 -11 -13 -5 14 -11
39 -13 55 -2 17 -1 22 1 13 3 -10 10 -18 15 -18z m-4372 -37 c0 -5 -48 -50
-107 -100 l-107 -93 -202 0 -203 0 0 100 0 100 310 0 c171 0 310 -3 309 -7z
m5281 -93 l0 -100 -206 0 -206 0 -98 88 c-54 48 -101 93 -104 100 -4 9 60 12
304 12 l310 0 0 -100z m-1460 5 c0 -2 -10 -9 -22 -15 -22 -11 -22 -10 -4 4 21
17 26 19 26 11z m-2265 -12 c-11 -2 -40 -11 -65 -19 -25 -7 -83 -19 -130 -24
-90 -11 -259 -42 -350 -65 -64 -16 -74 -13 -31 10 67 34 216 70 391 95 58 8
219 11 185 3z m1845 -29 c69 -14 135 -27 147 -28 11 0 19 -5 15 -10 -3 -5 8
-7 24 -4 16 3 38 2 49 -3 16 -7 13 -8 -10 -4 l-30 5 35 -20 35 -21 -30 6 c-94
20 -344 65 -365 65 -14 0 -68 12 -120 25 l-95 25 110 -5 c61 -2 165 -16 235
-31z m1305 -34 c10 -11 16 -20 13 -20 -3 0 -13 9 -23 20 -10 11 -16 20 -13 20
3 0 13 -9 23 -20z m-4755 6 c0 -2 -8 -10 -17 -17 -16 -13 -17 -12 -4 4 13 16
21 21 21 13z m116 -75 c-9 -10 -16 -24 -16 -32 0 -8 -22 -32 -48 -54 -75 -63
-362 -348 -362 -359 0 -5 17 6 38 24 21 20 16 13 -12 -17 -27 -29 -53 -50 -57
-47 -4 2 -58 -59 -120 -136 -102 -128 -129 -155 -129 -131 0 11 153 221 234
321 80 99 290 310 394 394 45 37 83 73 83 79 1 7 3 4 6 -6 3 -10 -2 -26 -11
-36z m4775 -211 c156 -156 405 -470 425 -538 6 -19 -18 8 -181 202 -137 163
-292 324 -413 429 -99 86 -115 106 -106 131 8 21 122 -71 275 -224z m-5121
199 c0 -17 -152 -175 -185 -192 -21 -10 -49 -13 -92 -10 l-63 5 0 88 c0 49 -3
95 -6 104 -5 14 13 16 170 16 119 0 176 -3 176 -11z m5560 -93 l0 -105 -42 -3
c-31 -2 -42 -7 -40 -17 3 -12 0 -12 -13 -1 -8 7 -18 10 -22 6 -3 -3 0 -6 7 -6
7 0 11 -2 8 -5 -2 -3 -18 1 -34 10 -26 13 -76 61 -189 183 l-39 42 182 0 182
0 0 -104z m-4710 9 c14 -19 14 -19 -2 -6 -10 7 -18 18 -18 24 0 6 1 8 3 6 1
-2 9 -13 17 -24z m4340 -30 c19 -19 32 -35 29 -35 -3 0 -20 16 -39 35 -19 19
-32 35 -29 35 3 0 20 -16 39 -35z m-2519 -104 c87 -32 225 -90 214 -91 -18 -1
40 -29 62 -30 12 0 25 -4 28 -10 3 -5 17 -10 31 -10 17 0 33 -12 54 -42 16
-22 30 -37 30 -31 0 5 -7 18 -15 29 -20 27 -19 40 3 21 10 -10 22 -14 27 -10
4 5 5 2 1 -4 -4 -7 -4 -18 0 -25 5 -8 10 -6 14 8 6 17 9 15 23 -13 10 -18 17
-42 16 -55 -1 -18 -3 -15 -10 11 -14 45 -19 36 -10 -16 10 -52 -2 -77 -17 -37
-10 29 -10 29 -12 -11 -1 -32 -3 -36 -10 -20 -8 19 -9 19 -9 -2 -1 -12 -4 -29
-8 -39 -6 -16 -7 -16 -14 2 -7 17 -8 17 -8 2 -1 -28 -58 -75 -84 -70 -4 1 -6
-3 -5 -9 4 -14 -70 -41 -85 -32 -5 3 -7 1 -3 -5 16 -27 -157 -58 -314 -56
-124 2 -172 10 -229 38 -28 15 -54 27 -58 27 -5 1 -28 11 -53 22 -60 28 -120
90 -121 125 -1 22 -2 23 -6 5 -2 -12 1 -32 7 -45 9 -18 6 -17 -15 7 -15 17
-33 44 -40 60 -8 17 -14 26 -15 20 -1 -27 -20 24 -20 55 0 26 3 31 10 20 6
-10 10 -11 10 -2 0 6 4 12 9 12 6 0 8 -17 5 -37 l-4 -38 13 42 c6 23 18 48 25
55 11 11 12 6 7 -27 l-6 -40 15 33 c8 17 20 32 26 32 6 0 15 11 21 23 12 26
44 34 34 9 -4 -12 -3 -13 10 -2 14 11 13 14 -2 26 -17 13 -17 13 2 14 37 2 54
8 192 63 76 30 145 57 153 60 31 11 79 6 131 -12z m-2908 -27 c6 -6 -79 -116
-94 -122 -5 -2 -9 26 -9 62 l0 66 48 0 c27 0 51 -3 55 -6z m5797 -53 c0 -64
-6 -76 -30 -58 -18 14 -90 103 -90 111 0 3 27 6 60 6 l60 0 0 -59z m-3420 -75
c0 -3 -4 -8 -10 -11 -5 -3 -10 -1 -10 4 0 6 5 11 10 11 6 0 10 -2 10 -4z
m-1819 -204 c12 -5 12 -22 0 -22 -10 0 -51 84 -50 102 0 7 10 -7 21 -32 11
-25 25 -46 29 -48z m4586 56 c-3 -8 -6 -5 -6 6 -1 11 2 17 5 13 3 -3 4 -12 1
-19z m-27 -57 c-15 -30 -30 -35 -17 -6 7 14 16 25 20 25 4 0 3 -9 -3 -19z m28
-23 c-25 -47 -165 -195 -174 -185 -3 3 6 18 20 34 74 78 152 167 159 179 4 8
10 14 13 14 3 0 -5 -19 -18 -42z m-4523 -96 c-7 -7 -64 38 -90 72 -43 57 -27
53 35 -9 33 -32 58 -61 55 -63z m4449 -64 c-25 -45 -56 -77 -69 -71 -11 3 -13
1 -9 -10 3 -10 -9 -30 -34 -55 -42 -42 -91 -75 -77 -52 5 8 3 11 -6 8 -8 -3
-13 -10 -12 -16 2 -6 -3 -9 -10 -6 -7 2 -28 -7 -47 -21 -52 -39 -50 -29 5 22
68 62 201 163 208 157 3 -3 15 9 27 25 21 30 38 43 24 19z m-2674 -375 c63
-38 145 -87 182 -107 37 -21 70 -42 74 -47 3 -5 -21 -46 -54 -92 -33 -45 -110
-158 -171 -252 -61 -93 -118 -179 -127 -190 -8 -11 -23 -32 -32 -47 -9 -16
-20 -28 -24 -28 -25 0 -127 143 -169 238 -37 81 -79 238 -78 284 1 23 3 26 6
10 3 -13 9 -19 15 -16 7 4 8 2 4 -4 -8 -14 8 -81 27 -105 12 -17 13 -17 13 2
0 11 -5 17 -10 14 -5 -4 -7 1 -3 11 4 10 3 15 -3 11 -6 -3 -10 3 -10 14 0 12
5 21 10 21 6 0 10 7 10 15 0 8 5 15 11 15 5 0 7 5 4 10 -3 6 -1 10 5 10 7 0 9
7 6 16 -3 9 -2 12 5 9 6 -4 8 -14 4 -23 -3 -9 -3 -13 1 -9 4 4 18 -3 30 -14
l23 -22 -11 31 c-7 17 -16 28 -22 25 -5 -3 -6 -1 -2 5 8 13 -14 63 -25 56 -5
-3 -6 1 -3 9 3 8 -4 38 -16 68 -19 50 -60 206 -60 230 0 6 6 7 13 3 8 -5 8 -3
-2 9 -7 9 -16 15 -20 13 -3 -2 -16 9 -28 23 -15 19 -19 32 -12 42 7 11 9 10 9
-5 0 -11 3 -16 7 -13 4 4 18 -3 32 -17 14 -13 40 -31 56 -41 l30 -17 -25 22
c-173 153 -166 160 30 27 102 -68 237 -156 300 -194z m1295 265 c-28 -28 -61
-62 -75 -75 -14 -14 -2 -8 28 12 28 20 52 42 52 48 0 6 3 8 6 4 4 -3 3 -14 0
-24 -4 -10 -7 -19 -7 -21 1 -1 -11 -26 -26 -55 -15 -28 -35 -70 -45 -92 l-18
-40 20 25 c26 33 26 10 0 -32 -21 -35 -27 -63 -10 -53 6 3 7 -1 4 -9 -3 -9 -9
-16 -13 -16 -3 0 -6 -11 -6 -24 0 -18 3 -22 12 -14 7 6 10 15 6 21 -3 6 -1 7
6 3 9 -6 6 -16 -12 -39 -21 -29 -46 -80 -32 -65 4 3 18 0 33 -8 24 -12 28 -12
34 4 16 40 12 -36 -7 -138 -25 -135 -108 -309 -190 -396 -42 -45 -47 -48 -58
-31 -237 359 -345 520 -373 553 l-34 42 168 97 c146 85 482 303 551 356 42 33
36 20 -14 -33z m2310 -58 c-3 -5 -14 -10 -23 -9 -14 0 -13 2 3 9 27 11 27 11
20 0z m-128 -237 c-2 -38 -3 -7 -3 67 0 74 1 105 3 68 2 -38 2 -98 0 -135z
m-3897 22 c5 3 11 1 14 -4 4 -5 -2 -8 -11 -7 -9 2 -18 8 -19 15 -1 6 0 7 3 1
2 -5 9 -8 13 -5z m-1431 -58 c-2 -1 -13 -9 -24 -17 -19 -14 -19 -14 -6 3 7 9
18 17 24 17 6 0 8 -1 6 -3z m1475 -9 c-3 -5 0 -16 7 -24 6 -8 10 -16 7 -19 -2
-2 -12 8 -21 24 -13 23 -14 28 -2 28 8 0 12 -4 9 -9z m-2181 -11 c3 -8 2 -19
-3 -26 -5 -9 -9 -4 -12 13 -5 27 6 36 15 13z m657 -12 c0 -2 -10 -9 -22 -15
-22 -11 -22 -10 -4 4 21 17 26 19 26 11z m5360 -42 c-11 -17 -11 -17 -6 0 3
10 6 24 7 30 0 9 2 9 5 0 3 -7 0 -20 -6 -30z m-5410 12 c0 -2 -10 -9 -22 -15
-22 -11 -22 -10 -4 4 21 17 26 19 26 11z m184 -9 c-21 -15 -30 -14 -19 3 3 6
14 11 23 11 13 0 13 -2 -4 -14z m3006 4 c0 -5 -5 -10 -11 -10 -5 0 -7 5 -4 10
3 6 8 10 11 10 2 0 4 -4 4 -10z m1430 0 c0 -5 -7 -10 -16 -10 -8 0 -12 5 -9
10 3 6 10 10 16 10 5 0 9 -4 9 -10z m231 -27 c13 -16 12 -17 -3 -4 -10 7 -18
15 -18 17 0 8 8 3 21 -13z m-4901 3 c0 -2 -8 -10 -17 -17 -16 -13 -17 -12 -4
4 13 16 21 21 21 13z m3220 0 c0 -3 -4 -8 -10 -11 -5 -3 -10 -1 -10 4 0 6 5
11 10 11 6 0 10 -2 10 -4z m-725 -22 c18 -8 47 -36 66 -61 18 -26 26 -43 18
-38 -8 5 -20 16 -26 26 -19 25 -64 38 -124 34 -69 -4 -84 -8 -106 -26 -39 -34
-48 -33 -26 2 45 73 124 98 198 63z m2301 -4 c23 -11 49 -29 59 -40 16 -18 15
-19 -23 -39 l-39 -20 -34 29 c-19 16 -40 29 -46 30 -7 0 -13 12 -13 26 0 14 4
23 10 19 6 -3 10 -1 10 4 0 17 30 13 76 -9z m644 -1 c-7 -11 -14 -18 -17 -15
-3 3 0 12 7 21 18 21 23 19 10 -6z m-5889 -63 c30 -15 43 -24 29 -20 -44 12
-102 49 -118 74 l-14 25 24 -26 c13 -14 49 -38 79 -53z m622 68 c9 -10 -15
-54 -30 -54 -7 0 -13 -3 -13 -7 0 -5 -13 -16 -29 -25 -27 -15 -29 -15 -24 -1
4 10 2 14 -4 10 -16 -10 -43 3 -43 19 0 19 44 46 88 55 21 3 40 7 43 8 3 0 8
-2 12 -5z m-206 -20 c-3 -3 -12 -4 -19 -1 -8 3 -5 6 6 6 11 1 17 -2 13 -5z
m-37 -8 c0 -2 -9 -6 -20 -9 -11 -3 -18 -1 -14 4 5 9 34 13 34 5z m5479 -9 c-2
-1 -13 -9 -24 -17 -19 -14 -19 -14 -6 3 7 9 18 17 24 17 6 0 8 -1 6 -3z m-54
-35 c-3 -3 -11 0 -18 7 -9 10 -8 11 6 5 10 -3 15 -9 12 -12z m-3714 -19 c-12
-20 -14 -14 -5 12 4 9 9 14 11 11 3 -2 0 -13 -6 -23z m3578 1 c10 -9 -35 -3
-49 6 -11 8 -7 9 15 4 17 -4 32 -8 34 -10z m104 9 c-7 -2 -19 -2 -25 0 -7 3
-2 5 12 5 14 0 19 -2 13 -5z m-4933 -7 c0 -2 -12 -11 -27 -20 l-28 -17 24 20
c23 21 31 25 31 17z m4883 -3 c-7 -2 -19 -2 -25 0 -7 3 -2 5 12 5 14 0 19 -2
13 -5z m-5295 -27 l24 -13 -39 -18 c-21 -11 -42 -18 -46 -17 -4 1 -20 -9 -35
-23 l-27 -25 -3 25 c-4 31 13 54 53 71 37 16 44 16 73 0z m5003 -9 c28 -19 34
-29 36 -62 1 -22 -1 -32 -3 -23 -3 10 -35 34 -71 54 -46 26 -61 39 -51 45 23
15 54 10 89 -14z m-4671 -41 c15 -21 20 -38 9 -33 -3 1 -14 -5 -24 -13 -14
-11 -19 -12 -22 -2 -3 6 -8 10 -12 7 -5 -2 -18 7 -31 20 l-23 25 34 14 c37 15
46 13 69 -18z m4280 19 c0 -2 -6 -8 -13 -14 -10 -8 -14 -7 -14 2 0 8 6 14 14
14 7 0 13 -1 13 -2z m-60 -15 c0 -5 -2 -10 -4 -10 -3 0 -8 5 -11 10 -3 6 -1
10 4 10 6 0 11 -4 11 -10z m633 3 c-7 -2 -19 -2 -25 0 -7 3 -2 5 12 5 14 0 19
-2 13 -5z m-429 -46 c20 -16 27 -29 23 -40 -9 -24 -48 -7 -70 32 -18 30 -18
31 0 31 10 0 31 -11 47 -23z m-4521 -29 c9 -18 14 -34 12 -36 -6 -7 -40 8 -64
29 -21 17 -22 22 -10 30 26 16 46 9 62 -23z m-122 -19 l20 -20 -21 -19 c-23
-20 -49 -16 -92 14 -19 14 -19 14 4 30 31 22 64 20 89 -5z m4804 -7 c0 -16
-75 -61 -92 -55 -21 8 -15 30 14 53 29 22 78 24 78 2z m353 -14 c24 -11 41
-25 39 -31 -4 -14 -87 -49 -84 -35 1 6 -11 18 -28 28 -16 10 -29 23 -27 29 1
6 -6 11 -15 11 -16 1 -16 2 2 16 23 17 49 13 113 -18z m-5513 12 c7 0 15 -6
18 -13 3 -9 -14 -24 -48 -41 -52 -26 -55 -26 -80 -10 -14 9 -25 20 -25 24 0
15 87 50 108 44 8 -2 20 -4 27 -4z m4756 -141 c92 -46 269 -153 269 -163 0
-14 -49 8 -128 57 -50 31 -131 80 -180 107 -156 88 -138 88 39 -1z m-4936 35
c-10 -8 -25 -14 -32 -14 -7 0 -13 -8 -14 -17 0 -10 -3 -13 -6 -6 -4 12 -9 11
-60 -15 -37 -20 -38 -13 -5 36 13 19 79 40 109 34 25 -5 25 -6 8 -18z m5866 0
c28 -14 58 -74 37 -74 -13 0 -90 47 -126 78 l-27 22 45 -6 c25 -4 57 -13 71
-20z m-5011 -45 c-63 -34 -146 -81 -184 -106 -74 -47 -91 -51 -51 -11 28 28
310 177 335 178 8 0 -37 -28 -100 -61z m4692 31 l27 -13 -27 -38 c-17 -25 -32
-37 -42 -33 -8 3 -19 6 -24 7 -5 1 -23 15 -40 30 l-31 29 27 23 c29 25 47 24
110 -5z m-5137 -30 c8 -13 -53 -69 -83 -76 -22 -6 -52 10 -52 27 0 4 17 20 37
34 38 25 87 33 98 15z m-272 -207 c-7 -2 -19 -2 -25 0 -7 3 -2 5 12 5 14 0 19
-2 13 -5z m-306 -9 c-3 -3 -12 -4 -19 -1 -8 3 -5 6 6 6 11 1 17 -2 13 -5z
m5470 -60 c-3 -3 -12 -4 -19 -1 -8 3 -5 6 6 6 11 1 17 -2 13 -5z m-4990 -40
c-3 -3 -12 -4 -19 -1 -8 3 -5 6 6 6 11 1 17 -2 13 -5z m4730 -10 c-3 -3 -12
-4 -19 -1 -8 3 -5 6 6 6 11 1 17 -2 13 -5z m-50 -10 c-3 -3 -12 -4 -19 -1 -8
3 -5 6 6 6 11 1 17 -2 13 -5z m346 -11 c-7 -2 -19 -2 -25 0 -7 3 -2 5 12 5 14
0 19 -2 13 -5z m-4150 -60 c-7 -2 -19 -2 -25 0 -7 3 -2 5 12 5 14 0 19 -2 13
-5z m3814 -9 c-3 -3 -12 -4 -19 -1 -8 3 -5 6 6 6 11 1 17 -2 13 -5z m-4010
-30 c-3 -3 -12 -4 -19 -1 -8 3 -5 6 6 6 11 1 17 -2 13 -5z m3356 -11 c-7 -2
-19 -2 -25 0 -7 3 -2 5 12 5 14 0 19 -2 13 -5z m-2816 -19 c-3 -3 -12 -4 -19
-1 -8 3 -5 6 6 6 11 1 17 -2 13 -5z m3070 -10 c-3 -3 -12 -4 -19 -1 -8 3 -5 6
6 6 11 1 17 -2 13 -5z m-2880 -20 c-3 -3 -12 -4 -19 -1 -8 3 -5 6 6 6 11 1 17
-2 13 -5z m2710 -10 c-3 -3 -12 -4 -19 -1 -8 3 -5 6 6 6 11 1 17 -2 13 -5z
m-2984 -21 c-7 -2 -19 -2 -25 0 -7 3 -2 5 12 5 14 0 19 -2 13 -5z m2894 1 c-3
-3 -12 -4 -19 -1 -8 3 -5 6 6 6 11 1 17 -2 13 -5z m-2354 -11 c-7 -2 -19 -2
-25 0 -7 3 -2 5 12 5 14 0 19 -2 13 -5z m2304 1 c-3 -3 -12 -4 -19 -1 -8 3 -5
6 6 6 11 1 17 -2 13 -5z m-584 -11 c-7 -2 -19 -2 -25 0 -7 3 -2 5 12 5 14 0
19 -2 13 -5z m-2026 -19 c-3 -3 -12 -4 -19 -1 -8 3 -5 6 6 6 11 1 17 -2 13 -5z
m1806 -1 c-7 -2 -19 -2 -25 0 -7 3 -2 5 12 5 14 0 19 -2 13 -5z m-75 -10 c-10
-2 -26 -2 -35 0 -10 3 -2 5 17 5 19 0 27 -2 18 -5z m-1471 -29 c-3 -3 -12 -4
-19 -1 -8 3 -5 6 6 6 11 1 17 -2 13 -5z m1838 -4 c-3 -5 -21 -9 -38 -9 l-32 2
35 7 c19 4 36 8 38 9 2 0 0 -3 -3 -9z m48 3 c-7 -2 -19 -2 -25 0 -7 3 -2 5 12
5 14 0 19 -2 13 -5z m-1800 -10 c-7 -2 -19 -2 -25 0 -7 3 -2 5 12 5 14 0 19
-2 13 -5z m1664 -9 c-3 -3 -12 -4 -19 -1 -8 3 -5 6 6 6 11 1 17 -2 13 -5z
m-1324 -31 c-7 -2 -19 -2 -25 0 -7 3 -2 5 12 5 14 0 19 -2 13 -5z m1020 0 c-7
-2 -21 -2 -30 0 -10 3 -4 5 12 5 17 0 24 -2 18 -5z m-870 -10 c-7 -2 -21 -2
-30 0 -10 3 -4 5 12 5 17 0 24 -2 18 -5z m750 0 c-13 -2 -33 -2 -45 0 -13 2
-3 4 22 4 25 0 35 -2 23 -4z m-305 -10 c-10 -2 -28 -2 -40 0 -13 2 -5 4 17 4
22 1 32 -1 23 -4z"/>
<path d="M4400 5166 c0 -2 8 -10 18 -17 15 -13 16 -12 3 4 -13 16 -21 21 -21
13z"/>
<path d="M780 4100 l0 -120 170 0 171 0 -3 118 -3 117 -167 3 -168 2 0 -120z"/>
<path d="M6137 5523 c-4 -3 -7 -15 -7 -25 0 -13 7 -18 25 -18 20 0 25 5 25 25
0 18 -5 25 -18 25 -10 0 -22 -3 -25 -7z"/>
<path d="M6132 5423 c4 -34 32 -42 48 -13 14 26 5 40 -26 40 -22 0 -25 -4 -22
-27z"/>
<path d="M4100 5044 c-9 -10 -9 -14 -1 -14 6 0 11 6 11 13 0 9 3 8 9 -2 5 -8
11 -9 15 -3 10 16 -21 22 -34 6z"/>
<path d="M3036 5104 c-3 -9 -4 -19 -1 -22 3 -3 5 1 5 9 0 11 2 11 10 -1 5 -8
10 -10 10 -5 0 6 -4 16 -9 23 -6 11 -10 10 -15 -4z"/>
<path d="M3076 5104 c-9 -23 -7 -31 4 -14 8 13 11 12 25 -5 16 -20 16 -20 5 2
-14 30 -27 36 -34 17z"/>
<path d="M4032 4940 c0 -14 2 -19 5 -12 2 6 2 18 0 25 -3 6 -5 1 -5 -13z"/>
<path d="M2878 4907 c-3 -14 0 -24 7 -24 7 0 10 10 7 24 -2 13 -6 23 -7 23 -1
0 -5 -10 -7 -23z"/>
<path d="M2991 4920 c-1 -12 -12 -15 -48 -13 -46 1 -40 -1 35 -13 17 -3 32
-11 32 -18 0 -22 27 -27 33 -6 3 13 -2 20 -18 24 -13 3 -26 14 -28 24 -3 12
-5 13 -6 2z"/>
<path d="M2796 4864 c-5 -14 -4 -15 9 -4 17 14 19 20 6 20 -5 0 -12 -7 -15
-16z"/>
<path d="M3907 4843 c-10 -9 -9 -23 1 -23 5 0 9 7 9 15 0 17 -1 18 -10 8z"/>
<path d="M2761 4829 c-1 -9 8 -26 19 -39 19 -22 22 -29 24 -59 1 -8 7 -16 14
-17 7 -1 8 0 2 3 -5 2 -8 8 -5 13 3 4 -4 28 -15 51 -11 24 -20 40 -20 34 -1
-5 -5 -1 -10 10 -6 15 -9 16 -9 4z"/>
<path d="M3122 4825 c0 -11 4 -33 8 -50 7 -27 8 -27 8 -5 0 14 -4 36 -8 50 -6
20 -8 21 -8 5z"/>
<path d="M3825 4823 c3 -13 2 -23 -3 -23 -5 0 -12 -9 -15 -21 -8 -31 15 -18
26 15 6 19 6 31 -3 39 -10 9 -11 7 -5 -10z"/>
<path d="M2585 4821 c-3 -5 -1 -12 5 -16 5 -3 10 1 10 9 0 18 -6 21 -15 7z"/>
<path d="M3769 4822 c-1 -4 0 -22 1 -39 1 -23 -3 -33 -13 -33 -9 0 -18 6 -20
13 -4 10 -6 10 -6 0 -1 -7 -2 -16 -3 -20 -2 -4 21 -7 50 -8 51 -1 69 8 33 18
-12 3 -18 13 -18 31 0 14 4 23 10 19 5 -3 8 0 5 7 -4 14 -37 23 -39 12z"/>
<path d="M4199 4793 c-7 -21 -21 -54 -32 -73 -14 -25 -15 -31 -3 -21 16 13 60
120 52 128 -2 2 -10 -13 -17 -34z"/>
<path d="M2550 4800 c0 -11 5 -20 10 -20 6 0 10 9 10 20 0 11 -4 20 -10 20 -5
0 -10 -9 -10 -20z"/>
<path d="M3861 4804 c0 -11 3 -14 6 -6 3 7 2 16 -1 19 -3 4 -6 -2 -5 -13z"/>
<path d="M4036 4803 c-6 -14 -5 -15 5 -6 7 7 10 15 7 18 -3 3 -9 -2 -12 -12z"/>
<path d="M2661 4800 c0 -8 3 -21 8 -28 6 -10 10 -10 21 3 10 12 10 15 -3 15
-8 0 -18 6 -20 13 -4 8 -6 7 -6 -3z"/>
<path d="M2945 4799 c-4 -6 -5 -12 -2 -15 2 -3 7 2 10 11 7 17 1 20 -8 4z"/>
<path d="M2986 4797 c3 -10 9 -15 12 -12 3 3 0 11 -7 18 -10 9 -11 8 -5 -6z"/>
<path d="M2585 4775 c-5 -8 -20 -16 -33 -18 -12 -2 -28 -9 -35 -17 -9 -10 -9
-11 1 -6 6 4 12 2 12 -4 0 -17 38 -68 60 -80 15 -8 18 -6 15 8 -2 9 -4 21 -4
26 -1 5 -7 3 -15 -3 -11 -9 -17 -5 -30 16 -17 28 -17 28 2 6 14 -16 22 -19 31
-10 14 14 14 44 1 52 -5 3 -10 1 -10 -4 0 -11 -34 -10 -46 1 -3 4 2 5 13 4 10
-2 23 -1 28 3 15 8 36 10 31 2 -3 -4 -1 -13 3 -20 6 -9 11 -10 15 -2 4 6 2 11
-4 11 -6 0 -9 4 -6 9 3 4 0 16 -7 25 -11 14 -13 14 -22 1z"/>
<path d="M2635 4770 c3 -5 8 -10 11 -10 2 0 4 5 4 10 0 6 -5 10 -11 10 -5 0
-7 -4 -4 -10z"/>
<path d="M2453 4747 c0 -12 1 -16 4 -9 4 10 9 9 20 -5 13 -17 13 -16 3 4 -15
31 -26 35 -27 10z"/>
<path d="M2773 4749 c-2 -23 3 -25 10 -4 4 8 3 16 -1 19 -4 3 -9 -4 -9 -15z"/>
<path d="M3373 4730 c0 -25 2 -35 4 -22 2 12 2 32 0 45 -2 12 -4 2 -4 -23z"/>
<path d="M3683 4730 c0 -25 2 -35 4 -22 2 12 2 32 0 45 -2 12 -4 2 -4 -23z"/>
<path d="M4129 4753 c-13 -16 -12 -17 4 -4 9 7 17 15 17 17 0 8 -8 3 -21 -13z"/>
<path d="M4447 4756 c-4 -10 -3 -14 2 -11 5 3 12 1 15 -4 4 -5 2 -12 -4 -16
-5 -3 -10 -12 -10 -18 0 -14 49 43 50 57 0 6 -6 1 -14 -9 -13 -17 -14 -17 -23
-1 -9 17 -11 17 -16 2z"/>
<path d="M3010 4755 c0 -8 50 -85 54 -85 3 0 -7 20 -21 45 -23 41 -33 54 -33
40z"/>
<path d="M4305 4750 c-3 -5 -2 -18 4 -27 7 -14 9 -12 8 10 -2 30 -3 31 -12 17z"/>
<path d="M4516 4745 c-3 -8 -1 -15 4 -15 6 0 10 7 10 15 0 8 -2 15 -4 15 -2 0
-6 -7 -10 -15z"/>
<path d="M2670 4735 c-9 -11 -8 -19 4 -37 9 -12 16 -18 16 -12 0 5 -5 15 -12
22 -8 8 -8 15 2 27 7 8 10 15 7 15 -2 0 -10 -7 -17 -15z"/>
<path d="M4355 4718 l-16 -33 21 24 c11 13 20 27 20 32 0 18 -10 8 -25 -23z"/>
<path d="M3142 4725 c0 -11 3 -29 8 -40 11 -25 11 1 0 35 -6 20 -8 21 -8 5z"/>
<path d="M3797 4717 c-3 -8 1 -14 9 -14 16 0 19 13 5 21 -5 3 -11 0 -14 -7z"/>
<path d="M3840 4720 c0 -5 5 -10 11 -10 5 0 7 5 4 10 -3 6 -8 10 -11 10 -2 0
-4 -4 -4 -10z"/>
<path d="M3993 4699 c-7 -18 -11 -35 -8 -37 6 -6 27 48 23 60 -2 5 -9 -6 -15
-23z"/>
<path d="M4084 4708 l-19 -23 23 19 c12 11 22 21 22 23 0 8 -8 2 -26 -19z"/>
<path d="M4210 4714 c0 -8 5 -12 10 -9 6 4 8 11 5 16 -9 14 -15 11 -15 -7z"/>
<path d="M2890 4716 c0 -3 15 -15 33 -27 23 -17 28 -18 18 -6 -14 18 -51 42
-51 33z"/>
<path d="M2986 4705 c4 -8 8 -15 10 -15 2 0 4 7 4 15 0 8 -4 15 -10 15 -5 0
-7 -7 -4 -15z"/>
<path d="M3936 4712 c-3 -5 1 -9 9 -9 8 0 12 4 9 9 -3 4 -7 8 -9 8 -2 0 -6 -4
-9 -8z"/>
<path d="M2486 4702 c-3 -5 1 -9 9 -9 8 0 12 4 9 9 -3 4 -7 8 -9 8 -2 0 -6 -4
-9 -8z"/>
<path d="M3278 4703 c7 -3 16 -2 19 1 4 3 -2 6 -13 5 -11 0 -14 -3 -6 -6z"/>
<path d="M2420 4693 c0 -1 13 -9 29 -18 20 -10 32 -11 36 -5 4 6 3 10 -2 9
-18 -3 -34 1 -29 9 2 4 -4 8 -15 8 -10 0 -19 -1 -19 -3z"/>
<path d="M2613 4687 c9 -8 15 -21 12 -29 -6 -15 22 -34 33 -23 3 3 0 5 -6 5
-7 0 -12 7 -12 16 0 8 4 12 10 9 6 -3 7 1 4 10 -4 9 -9 14 -12 11 -2 -3 -14
-1 -26 5 -19 9 -20 9 -3 -4z"/>
<path d="M2821 4679 c-7 -12 -10 -24 -7 -27 3 -3 6 0 6 7 0 7 4 10 9 6 13 -7
21 8 12 23 -4 8 -11 5 -20 -9z"/>
<path d="M3339 4695 c-3 -3 -2 -174 1 -192 0 -1 14 2 30 7 17 5 28 5 25 0 -3
-4 -1 -19 4 -32 l10 -23 0 23 c1 13 5 20 11 17 9 -6 14 8 11 28 -1 5 3 6 8 2
6 -3 8 -13 5 -23 -5 -15 -5 -15 6 1 6 9 8 22 5 27 -3 5 0 7 9 4 11 -4 13 0 9
15 -3 12 -1 21 5 21 6 0 12 -7 14 -15 2 -11 8 -9 23 9 l21 23 -47 -1 c-26 -1
-45 -4 -42 -9 2 -4 9 -4 15 -1 7 4 8 2 4 -5 -4 -6 -11 -9 -16 -6 -5 3 -11 -3
-13 -12 -3 -10 -5 6 -6 35 -1 42 -4 52 -18 53 -15 0 -15 2 2 9 15 7 10 9 -24
9 -34 1 -42 4 -38 16 6 13 -5 29 -14 20z m57 -117 c-1 -47 -4 -53 -23 -56 -22
-3 -23 0 -23 52 0 52 2 56 24 56 22 0 23 -4 22 -52z"/>
<path d="M3719 4681 c-1 -12 -3 -25 -4 -31 -1 -5 -3 -26 -4 -46 -1 -24 -5 -33
-13 -28 -7 4 -8 3 -4 -5 4 -6 11 -9 16 -6 4 3 10 -1 13 -7 3 -7 3 5 1 26 -1
22 0 44 3 50 10 15 10 57 1 62 -4 3 -9 -4 -9 -15z"/>
<path d="M3786 4681 c-4 -5 -4 -16 -1 -23 3 -8 -4 -23 -16 -34 -22 -18 -22
-18 -15 0 5 16 4 17 -9 6 -19 -16 -15 -21 19 -24 15 -2 24 -1 22 2 -3 2 1 17
9 33 8 15 15 33 15 39 0 12 -17 13 -24 1z"/>
<path d="M3006 4667 c3 -10 9 -15 12 -12 3 3 0 11 -7 18 -10 9 -11 8 -5 -6z"/>
<path d="M4156 4661 c-12 -13 -14 -21 -6 -26 6 -4 9 -1 8 7 -2 7 2 12 8 11 6
-1 11 5 11 13 0 18 0 18 -21 -5z"/>
<path d="M4330 4671 c0 -6 4 -13 10 -16 6 -3 7 1 4 9 -7 18 -14 21 -14 7z"/>
<path d="M3828 4655 c-3 -11 -9 -29 -13 -40 -3 -11 1 -7 10 8 9 16 15 33 12
40 -2 6 -6 3 -9 -8z"/>
<path d="M2452 4633 c14 -16 24 -34 23 -41 -2 -7 -1 -8 2 -2 3 7 14 3 29 -11
23 -22 23 -23 6 -43 -11 -13 -12 -17 -2 -10 8 6 24 10 34 8 12 -2 -3 20 -45
62 -63 63 -97 90 -47 37z"/>
<path d="M2845 4646 c-18 -13 -17 -13 9 -11 17 2 26 -1 23 -8 -2 -7 9 -21 24
-33 16 -11 26 -23 23 -26 -3 -4 3 -5 13 -4 10 0 17 -4 16 -11 -2 -7 4 -10 12
-7 8 4 15 1 15 -5 0 -6 10 -11 23 -11 18 0 19 -2 7 -10 -8 -5 -10 -10 -5 -10
6 0 16 4 23 8 8 6 1 14 -24 25 -20 10 -59 40 -88 67 -47 45 -54 48 -71 36z"/>
<path d="M2247 4628 c18 -18 25 -20 35 -10 11 11 10 12 -4 7 -10 -4 -18 -3
-18 3 0 5 -8 13 -17 16 -14 6 -13 2 4 -16z"/>
<path d="M2617 4619 c7 -7 15 -10 18 -7 3 3 -2 9 -12 12 -14 6 -15 5 -6 -5z"/>
<path d="M4087 4612 c-15 -17 -15 -18 3 -19 11 -1 22 2 25 8 4 5 -2 6 -12 2
-16 -6 -16 -5 -4 10 18 23 8 22 -12 -1z"/>
<path d="M2297 4606 c-16 -13 -15 -15 10 -31 l28 -18 -20 23 c-17 20 -17 22
-3 17 12 -4 15 -2 11 9 -3 7 -6 14 -7 14 0 0 -9 -7 -19 -14z"/>
<path d="M4665 4610 c-3 -5 -1 -10 4 -10 6 0 11 5 11 10 0 6 -2 10 -4 10 -3 0
-8 -4 -11 -10z"/>
<path d="M2864 4588 c-5 -7 -3 -8 5 -4 7 5 19 0 27 -10 14 -18 14 -18 4 4 -12
24 -25 28 -36 10z"/>
<path d="M3210 4595 c0 -5 5 -17 10 -25 5 -8 10 -10 10 -5 0 6 -5 17 -10 25
-5 8 -10 11 -10 5z"/>
<path d="M3735 4590 c-3 -5 -1 -10 4 -10 6 0 11 5 11 10 0 6 -2 10 -4 10 -3 0
-8 -4 -11 -10z"/>
<path d="M3760 4590 c0 -5 5 -10 11 -10 5 0 7 5 4 10 -3 6 -8 10 -11 10 -2 0
-4 -4 -4 -10z"/>
<path d="M2736 4575 c-9 -26 -7 -32 5 -12 6 10 9 21 6 23 -2 3 -7 -2 -11 -11z"/>
<path d="M4045 4580 c-11 -17 -98 -58 -159 -74 -33 -8 -64 -20 -70 -27 -8 -9
-7 -10 7 -5 11 3 31 9 45 12 15 3 47 15 72 26 25 12 51 21 58 21 6 0 12 5 12
10 0 5 7 7 15 3 8 -3 14 0 12 7 -1 7 6 11 15 11 10 -1 14 4 11 12 -6 17 -10
17 -18 4z"/>
<path d="M3633 4556 c-10 -11 -9 -15 3 -20 21 -8 34 1 27 19 -6 18 -14 18 -30
1z"/>
<path d="M3796 4556 c6 -15 4 -17 -6 -11 -9 6 -11 4 -5 -4 5 -9 10 -10 18 -2
8 8 7 14 -2 24 -10 10 -11 8 -5 -7z"/>
<path d="M2950 4520 c8 -5 20 -10 25 -10 6 0 3 5 -5 10 -8 5 -19 10 -25 10 -5
0 -3 -5 5 -10z"/>
<path d="M3710 4513 c0 -6 -16 -9 -35 -7 -19 1 -38 -2 -41 -8 -4 -6 -2 -8 3
-5 6 4 31 0 57 -7 37 -11 46 -11 46 -1 0 7 -7 18 -15 25 -8 7 -15 8 -15 3z"/>
<path d="M2726 4498 c3 -5 10 -6 15 -3 13 9 11 12 -6 12 -8 0 -12 -4 -9 -9z"/>
<path d="M3088 4503 c7 -3 16 -2 19 1 4 3 -2 6 -13 5 -11 0 -14 -3 -6 -6z"/>
<path d="M3135 4490 c27 -12 43 -12 25 0 -8 5 -22 9 -30 9 -10 0 -8 -3 5 -9z"/>
<path d="M3265 4490 c-3 -5 -1 -19 5 -30 10 -19 6 -24 -13 -21 -5 1 -6 -3 -2
-9 3 -5 15 -10 26 -10 10 0 19 -4 19 -10 0 -5 -7 -7 -17 -3 -12 5 -11 -1 7
-25 13 -17 27 -29 31 -26 5 3 6 -2 3 -10 -3 -8 -1 -22 4 -32 8 -14 11 -11 20
16 13 35 8 54 -11 44 -7 -4 -9 -3 -4 1 4 5 -1 17 -10 27 -15 17 -15 21 -3 29
11 7 6 8 -15 3 -23 -4 -26 -3 -15 5 8 6 10 11 4 11 -19 0 -24 38 -5 43 14 4
14 5 -1 6 -9 0 -20 -3 -23 -9z m55 -106 c0 -8 -4 -12 -10 -9 -5 3 -10 10 -10
16 0 5 5 9 10 9 6 0 10 -7 10 -16z"/>
<path d="M3595 4489 c-10 -15 3 -25 16 -12 7 7 7 13 1 17 -6 3 -14 1 -17 -5z"/>
<path d="M3645 4470 c3 -5 8 -10 11 -10 2 0 4 5 4 10 0 6 -5 10 -11 10 -5 0
-7 -4 -4 -10z"/>
<path d="M3776 4455 c-11 -8 -15 -15 -9 -15 6 0 16 7 23 15 16 19 11 19 -14 0z"/>
<path d="M3378 4443 c7 -3 16 -2 19 1 4 3 -2 6 -13 5 -11 0 -14 -3 -6 -6z"/>
<path d="M3630 4446 c0 -2 9 -6 20 -9 11 -3 18 -1 14 4 -5 9 -34 13 -34 5z"/>
<path d="M3668 4401 c5 -3 13 -14 18 -23 8 -15 10 -15 19 5 10 20 8 22 -18 23
-16 1 -25 -2 -19 -5z"/>
<path d="M3617 4354 c-11 -11 -8 -42 5 -50 7 -5 8 -3 3 6 -4 7 -2 16 6 21 10
6 11 11 3 19 -6 6 -13 7 -17 4z"/>
<path d="M3357 4331 c-3 -12 -2 -23 3 -26 12 -7 22 27 12 37 -6 6 -12 1 -15
-11z"/>
<path d="M5867 4138 c-4 -46 -7 -100 -7 -120 l0 -38 195 0 195 0 0 120 0 120
-189 0 -188 0 -6 -82z"/>
<path d="M2260 4530 c0 -5 5 -10 10 -10 6 0 10 5 10 10 0 6 -4 10 -10 10 -5 0
-10 -4 -10 -10z"/>
<path d="M850 4490 c0 -25 4 -30 25 -30 21 0 25 5 25 30 0 25 -4 30 -25 30
-21 0 -25 -5 -25 -30z"/>
<path d="M6140 4494 c0 -33 33 -30 38 4 3 17 -2 22 -17 22 -16 0 -21 -6 -21
-26z"/>
<path d="M6136 4424 c-10 -27 -7 -34 19 -34 20 0 25 5 25 25 0 29 -34 36 -44
9z"/>
<path d="M1903 4353 c15 -2 37 -2 50 0 12 2 0 4 -28 4 -27 0 -38 -2 -22 -4z"/>
<path d="M3169 4267 c7 -9 17 -14 22 -11 14 8 11 -20 -3 -35 -8 -8 -8 -11 -2
-8 7 4 15 -3 19 -16 3 -12 9 -17 11 -10 7 16 -10 78 -22 78 -5 0 -16 4 -24 10
-13 8 -13 7 -1 -8z"/>
<path d="M4018 4353 c6 -2 18 -2 25 0 6 3 1 5 -13 5 -14 0 -19 -2 -12 -5z"/>
<path d="M4138 4353 c12 -2 30 -2 40 0 9 3 -1 5 -23 4 -22 0 -30 -2 -17 -4z"/>
<path d="M4912 4350 c37 -5 80 -5 95 0 19 6 -2 8 -67 8 l-95 -1 67 -7z"/>
<path d="M5123 4343 c9 -2 25 -2 35 0 9 3 1 5 -18 5 -19 0 -27 -2 -17 -5z"/>
<path d="M3851 4323 c-16 -14 -18 -22 -10 -33 9 -13 10 -13 6 0 -2 8 8 23 22
32 14 10 21 18 15 18 -7 0 -21 -8 -33 -17z"/>
<path d="M4428 4323 c6 -2 18 -2 25 0 6 3 1 5 -13 5 -14 0 -19 -2 -12 -5z"/>
<path d="M4698 4323 c7 -3 16 -2 19 1 4 3 -2 6 -13 5 -11 0 -14 -3 -6 -6z"/>
<path d="M3919 4275 c-25 -13 -51 -31 -59 -40 -13 -15 -15 -15 -32 7 -11 13
-17 17 -16 8 2 -8 7 -18 12 -21 4 -4 2 -17 -5 -30 -11 -20 -14 -21 -17 -6 -2
9 -8 17 -13 17 -8 0 -16 -156 -9 -190 2 -8 4 -42 5 -75 2 -33 5 -78 9 -100 3
-22 8 -89 11 -150 6 -119 33 -252 65 -314 24 -48 79 -95 129 -110 26 -7 183
-11 502 -11 l464 0 50 24 c141 65 183 194 192 582 4 182 2 231 -11 283 -9 35
-13 68 -9 73 4 7 1 8 -7 3 -10 -6 -12 -4 -6 11 4 10 4 15 0 12 -3 -4 -26 6
-50 22 l-43 30 -558 0 -558 -1 -46 -24z m1114 -84 c37 -14 67 -51 66 -80 -1
-16 -3 -19 -6 -9 -2 9 -11 19 -19 22 -9 3 -12 1 -9 -4 9 -14 -8 -12 -24 3 -8
6 -11 8 -9 2 3 -5 0 -16 -8 -23 -11 -10 -14 -10 -14 0 0 10 -2 10 -9 -1 -7
-11 -10 -10 -15 5 -3 11 -4 7 -2 -8 3 -28 -7 -37 -19 -17 -4 6 -13 8 -21 5 -8
-3 -11 0 -8 8 3 8 1 17 -5 21 -7 4 -11 -3 -11 -18 0 -25 16 -37 50 -37 10 0
21 -7 24 -16 9 -23 7 -187 -3 -202 -4 -7 -21 -16 -37 -21 -39 -10 -38 -40 1
-61 43 -22 45 -26 44 -115 -1 -112 -8 -129 -47 -133 -30 -3 -32 -6 -32 -43 l0
-39 -155 0 -155 0 6 40 7 40 -40 0 c-37 0 -41 2 -47 31 -3 17 -6 71 -6 119 l0
88 30 7 c36 8 60 43 39 56 -8 5 -24 9 -36 9 -19 0 -22 7 -28 63 -4 34 -5 87
-3 117 l3 55 43 9 c23 6 42 14 42 19 0 4 -4 5 -10 2 -5 -3 -10 0 -10 7 0 10
-2 10 -9 -1 -5 -8 -18 -12 -30 -8 -12 3 -21 2 -21 -2 0 -4 -14 -8 -31 -8 -23
0 -27 3 -15 9 20 11 21 25 1 25 -8 0 -12 -5 -8 -10 3 -5 -4 -6 -17 -2 -15 5
-20 4 -16 -4 10 -16 -1 -14 -29 5 -24 16 -25 15 -25 -5 0 -17 19 -28 33 -19 1
1 12 -4 25 -11 22 -12 22 -12 22 -281 l0 -270 -40 0 -40 0 0 -40 0 -40 -144 0
-145 0 -3 38 c-3 34 -6 37 -35 40 -30 3 -32 6 -38 55 -3 29 -5 151 -3 272 l3
220 40 6 c22 3 34 7 26 8 -8 0 -11 7 -7 17 4 9 2 13 -5 8 -8 -4 -10 6 -7 34 3
35 1 39 -13 31 -12 -6 -19 -4 -22 6 -4 10 -1 12 11 9 14 -5 15 -4 2 5 -8 6
-23 8 -34 5 -12 -4 -16 -2 -12 5 9 14 983 16 1019 2z m-1090 -46 c-3 -9 -8
-14 -10 -11 -3 3 -2 9 2 15 9 16 15 13 8 -4z m103 -26 c4 -8 9 -7 15 2 7 11 9
10 9 -3 0 -21 -4 -22 -31 -8 -11 7 -19 7 -19 1 0 -5 6 -12 13 -14 9 -4 9 -6 0
-6 -15 -1 -26 16 -18 29 8 13 22 13 31 -1z m-249 -56 c-3 -10 -5 -2 -5 17 0
19 2 27 5 18 2 -10 2 -26 0 -35z m1290 11 c-3 -3 -12 -4 -19 -1 -8 3 -5 6 6 6
11 1 17 -2 13 -5z m-1127 -250 c0 -2 -19 -4 -42 -4 -26 0 -38 4 -30 8 12 8 72
4 72 -4z m1118 -1 c-10 -2 -26 -2 -35 0 -10 3 -2 5 17 5 19 0 27 -2 18 -5z
m79 1 c-3 -3 -12 -4 -19 -1 -8 3 -5 6 6 6 11 1 17 -2 13 -5z"/>
<path d="M4986 4172 c5 -5 22 -14 39 -21 30 -13 30 -13 11 8 -11 12 -28 21
-40 21 -11 0 -16 -4 -10 -8z"/>
<path d="M4420 4129 c0 -5 5 -7 10 -4 6 3 10 8 10 11 0 2 -4 4 -10 4 -5 0 -10
-5 -10 -11z"/>
<path d="M4175 3998 c-3 -7 -4 -111 -2 -231 l2 -218 83 -2 82 -2 0 233 0 232
-80 0 c-55 0 -82 -4 -85 -12z"/>
<path d="M4667 3943 c-3 -38 -3 -71 0 -75 2 -5 47 -8 99 -8 l94 0 0 75 0 75
-94 0 -93 0 -6 -67z"/>
<path d="M4670 3640 l0 -87 87 -6 c49 -3 91 -3 95 0 5 2 8 45 8 94 l0 90 -95
-2 -95 -3 0 -86z"/>
<path d="M5201 3524 c0 -11 3 -14 6 -6 3 7 2 16 -1 19 -3 4 -6 -2 -5 -13z"/>
<path d="M5125 3334 c-9 -15 -12 -23 -6 -20 11 7 35 46 28 46 -3 0 -12 -12
-22 -26z"/>
<path d="M2550 3790 l0 -190 165 0 165 0 -2 188 -3 187 -162 3 -163 2 0 -190z"/>
<path d="M3347 4143 c-2 -5 -2 -14 -1 -20 1 -7 2 -22 3 -32 1 -14 6 -18 22
-14 16 4 17 8 7 14 -11 7 -11 9 1 9 8 0 11 7 8 20 -4 18 1 19 72 23 l76 3 -92
2 c-50 1 -94 -1 -96 -5z"/>
<path d="M3558 4143 c7 -3 16 -2 19 1 4 3 -2 6 -13 5 -11 0 -14 -3 -6 -6z"/>
<path d="M3585 4090 c-3 -5 -1 -10 4 -10 6 0 11 5 11 10 0 6 -2 10 -4 10 -3 0
-8 -4 -11 -10z"/>
<path d="M3510 4070 l-135 -6 138 -2 c86 -1 137 2 137 8 0 6 -1 9 -2 8 -2 -1
-64 -5 -138 -8z"/>
<path d="M3371 4018 c-13 -4 -27 -5 -33 -2 -6 4 -8 -2 -6 -12 2 -14 10 -18 28
-15 14 1 28 8 31 13 4 6 11 8 16 5 5 -3 15 -2 22 2 19 12 -30 20 -58 9z"/>
<path d="M3500 4015 c0 -11 11 -15 43 -14 38 1 99 14 87 19 -3 1 -33 4 -67 6
-52 4 -63 2 -63 -11z"/>
<path d="M1446 3944 c-5 -14 -4 -15 9 -4 17 14 19 20 6 20 -5 0 -12 -7 -15
-16z"/>
<path d="M5640 3221 c0 -6 4 -13 10 -16 6 -3 7 1 4 9 -7 18 -14 21 -14 7z"/>
<path d="M1723 3067 c1 -15 5 -27 10 -27 10 0 9 22 -2 39 -7 10 -9 7 -8 -12z"/>
<path d="M1720 3016 c0 -2 8 -10 18 -17 15 -13 16 -12 3 4 -13 16 -21 21 -21
13z"/>
<path d="M1737 2965 c-4 -8 -3 -16 1 -19 4 -3 9 4 9 15 2 23 -3 25 -10 4z"/>
<path d="M1775 2967 c-5 -7 -11 -19 -13 -27 -3 -11 0 -11 12 0 13 10 16 10 16
-1 0 -12 2 -12 9 0 9 14 4 41 -8 41 -3 -1 -10 -6 -16 -13z"/>
<path d="M1758 2890 c-7 -24 -3 -38 8 -28 3 4 4 17 2 30 l-3 23 -7 -25z"/>
<path d="M1837 2873 c-3 -5 1 -38 8 -75 7 -38 10 -68 6 -68 -3 0 1 -5 10 -10
10 -6 30 -5 53 1 l37 10 -25 20 c-13 11 -35 36 -47 57 -13 20 -27 40 -32 43
-5 4 -6 12 -3 18 4 6 5 11 2 11 -3 0 -7 -3 -9 -7z"/>
<path d="M1740 2840 c0 -6 7 -10 15 -10 8 0 15 2 15 4 0 2 -7 6 -15 10 -8 3
-15 1 -15 -4z"/>
<path d="M2656 2535 c4 -8 11 -15 16 -15 6 0 5 6 -2 15 -7 8 -14 15 -16 15 -2
0 -1 -7 2 -15z"/>
<path d="M5209 2957 c11 -14 11 -21 3 -29 -9 -9 -12 -8 -12 5 0 14 -4 15 -25
5 -16 -7 -23 -18 -21 -31 4 -30 32 -45 48 -28 11 11 10 12 -1 6 -9 -5 -12 -3
-9 6 3 8 11 13 17 12 6 -2 10 0 9 5 -1 4 4 18 11 32 8 14 10 22 6 18 -5 -4
-15 -2 -24 5 -14 11 -14 10 -2 -6z"/>
<path d="M5290 2944 c0 -8 5 -12 10 -9 6 4 8 11 5 16 -9 14 -15 11 -15 -7z"/>
<path d="M5099 2873 c-18 -20 -28 -33 -21 -29 6 4 12 2 12 -4 0 -7 7 -5 16 4
8 9 20 14 25 11 5 -4 9 -1 9 5 0 6 5 8 10 5 6 -3 10 -2 10 4 0 5 -5 13 -10 16
-6 4 -8 11 -5 16 15 23 -14 6 -46 -28z"/>
<path d="M5321 2858 c1 -7 5 -24 9 -38 8 -24 8 -24 9 7 1 17 -3 35 -9 38 -5 3
-10 0 -9 -7z"/>
<path d="M5140 2835 c0 -16 -48 -95 -65 -107 -6 -4 -1 -8 10 -9 65 -5 98 -6
82 -2 -15 4 -17 12 -11 69 5 45 3 64 -5 64 -6 0 -11 -7 -11 -15z"/>
<path d="M5121 2824 c0 -11 3 -14 6 -6 3 7 2 16 -1 19 -3 4 -6 -2 -5 -13z"/>
<path d="M3625 2905 c-24 -12 -25 -14 -5 -8 14 3 41 10 60 14 34 7 34 7 5 7
-16 1 -43 -5 -60 -13z"/>
<path d="M3575 2880 c-3 -5 -1 -10 4 -10 6 0 11 5 11 10 0 6 -2 10 -4 10 -3 0
-8 -4 -11 -10z"/>
<path d="M809 2043 c-13 -16 -12 -17 4 -4 9 7 17 15 17 17 0 8 -8 3 -21 -13z"/>
<path d="M3930 2105 c13 -14 26 -25 28 -25 3 0 -5 11 -18 25 -13 14 -26 25
-28 25 -3 0 5 -11 18 -25z"/>
<path d="M2991 2004 c0 -11 3 -14 6 -6 3 7 2 16 -1 19 -3 4 -6 -2 -5 -13z"/>
<path d="M3021 2004 c0 -11 3 -14 6 -6 3 7 2 16 -1 19 -3 4 -6 -2 -5 -13z"/>
<path d="M3920 1922 c0 -17 4 -34 10 -37 6 -4 7 6 3 27 -8 44 -13 48 -13 10z"/>
<path d="M3902 1880 c0 -14 2 -19 5 -12 2 6 2 18 0 25 -3 6 -5 1 -5 -13z"/>
<path d="M3839 1833 c-13 -16 -12 -17 4 -4 16 13 21 21 13 21 -2 0 -10 -8 -17
-17z"/>
<path d="M5565 1570 c-3 -5 -2 -10 4 -10 5 0 13 5 16 10 3 6 2 10 -4 10 -5 0
-13 -4 -16 -10z"/>
<path d="M2790 1244 c0 -10 90 -174 96 -174 2 0 -16 41 -41 90 -41 81 -55 103
-55 84z"/>
<path d="M4339 1553 c-13 -16 -12 -17 4 -4 16 13 21 21 13 21 -2 0 -10 -8 -17
-17z"/>
<path d="M4299 1493 c-13 -16 -12 -17 4 -4 9 7 17 15 17 17 0 8 -8 3 -21 -13z"/>
<path d="M4206 1285 c-9 -26 -7 -32 5 -12 6 10 9 21 6 23 -2 3 -7 -2 -11 -11z"/>
<path d="M4175 1202 c-10 -26 -31 -72 -47 -102 -16 -30 -23 -47 -14 -36 28 35
96 175 87 180 -4 3 -16 -16 -26 -42z"/>
<path d="M4227 1190 c-8 -22 -13 -40 -11 -40 7 0 36 71 31 76 -2 2 -11 -14
-20 -36z"/>
<path d="M4205 1129 c-3 -4 2 -6 10 -5 21 3 28 13 10 13 -9 0 -18 -4 -20 -8z"/>
<path d="M4185 1099 c-4 -6 -5 -12 -2 -15 2 -3 7 2 10 11 7 17 1 20 -8 4z"/>
<path d="M4296 1085 c-3 -9 -6 -22 -5 -28 0 -7 5 -1 10 12 5 13 8 26 5 28 -2
2 -6 -3 -10 -12z"/>
</g>
</svg>
